<?xml version="1.0" encoding="utf-8"?>
<!-- Generator: Adobe Illustrator 16.0.0, SVG Export Plug-In . SVG Version: 6.00 Build 0)  -->
<!DOCTYPE svg PUBLIC "-//W3C//DTD SVG 1.1//EN" "http://www.w3.org/Graphics/SVG/1.1/DTD/svg11.dtd">
<svg version="1.1" id="레이어_1" xmlns="http://www.w3.org/2000/svg" xmlns:xlink="http://www.w3.org/1999/xlink" x="0px"
	 y="0px" width="46.703px" height="70.75px" viewBox="0 0 46.703 70.75" enable-background="new 0 0 46.703 70.75"
	 xml:space="preserve">
<g>
	<path fill="#81BBE6" d="M16.234,4.474l0.152-0.043c0.027-0.008,0.055-0.011,0.083-0.011c0.064,0,0.128,0.021,0.181,0.06
		c0.075,0.057,0.119,0.146,0.119,0.24v0.204l0.053,0.053c0.026,0.025,0.046,0.055,0.061,0.088l0.169,0.378l0.02,0.063l0.154-0.154
		c0.015-0.015,0.032-0.029,0.05-0.041l0.219-0.141c0.049-0.032,0.106-0.047,0.162-0.047c0.066,0,0.133,0.022,0.188,0.065L18,5.313
		c0.071,0.057,0.112,0.143,0.112,0.234v0.359c0,0.027-0.003,0.053-0.01,0.079l-0.03,0.108c0.04,0.026,0.073,0.062,0.096,0.104
		l0.072,0.129l0.066-0.056c0.036-0.03,0.079-0.052,0.125-0.063l0.328-0.078c0.023-0.005,0.046-0.008,0.069-0.008
		c0.066,0,0.131,0.021,0.184,0.063l0.024,0.019h0c0.051-0.034,0.108-0.05,0.167-0.05c0.061,0,0.122,0.019,0.174,0.056l0.109,0.078
		c0.055,0.04,0.096,0.097,0.114,0.162l0.156,0.547c0.007,0.027,0.011,0.055,0.011,0.083v0.176l0.023,0.02
		c0.065,0.057,0.102,0.139,0.102,0.226v0.059l0.07,0.079h0.115h0.203c0.1,0,0.194,0.05,0.25,0.133l0.156,0.234l0.047,0.071
		l0.129,0.061h0.074c0.13,0,0.246,0.084,0.286,0.208l0.127,0.396l0.094,0.313c0.026,0.089,0.01,0.186-0.044,0.262l-0.289,0.401
		l-0.172,0.219l-0.237,0.301l-0.074,0.09l0,0.155l-0.016,0.167l0.03,0.023c0.09,0.072,0.131,0.189,0.105,0.302l-0.047,0.203
		c-0.012,0.051-0.037,0.098-0.072,0.136c0.015,0.014,0.028,0.029,0.041,0.046l0.188,0.267c0.035,0.05,0.054,0.111,0.054,0.172v0.405
		c0,0.01,0,0.021-0.001,0.031l0.005-0.003c0.042-0.021,0.088-0.031,0.134-0.031c0.063,0,0.127,0.02,0.18,0.06l0.162,0.124
		l0.184,0.112l0.292,0.222l0.727,0.262l0.299,0.095h0.141c0.065,0,0.128,0.021,0.18,0.06l0.175,0.132l0.059,0.04l0.195,0.064
		c0.123,0.041,0.206,0.156,0.206,0.285v0.078c0,0.053,0,0.165-0.213,0.503c-0.038,0.061-0.097,0.106-0.166,0.127l-0.176,0.054
		l-0.083,0.091l0.085,0.125c0.034,0.05,0.052,0.109,0.052,0.169l0,0.1l0.031,0.531c0.001,0.025,0,0.051-0.005,0.076l-0.063,0.313
		c-0.007,0.039-0.022,0.075-0.044,0.108l-0.2,0.299l-0.031,0.082l0.066,0.11c0.028,0.046,0.042,0.1,0.042,0.154l-0.002,0.321
		l-0.029,0.195v0.375c0,0.083-0.034,0.162-0.094,0.218l-0.134,0.126l-0.038,0.16v0.043c0,0.023-0.006,0.045-0.011,0.067l0.162,0.295
		l0.187,0.275l0.335-0.062l0.494-0.043l0.157-0.09l0.126-0.089l-0.06-0.293c-0.015-0.071-0.002-0.146,0.034-0.209l0.25-0.438
		c0.053-0.093,0.152-0.151,0.26-0.151h0.343h0.094c0.051,0,0.102,0.013,0.146,0.038l0.422,0.234
		c0.095,0.053,0.154,0.153,0.154,0.262v0.203c0,0.003,0,0.006,0,0.009l0.076-0.018l0.258-0.219c0.018-0.016,0.038-0.029,0.06-0.04
		l0.406-0.203c0.043-0.021,0.089-0.031,0.134-0.031c0.049,0,0.096,0.011,0.139,0.034l0.104-0.102
		c0.036-0.037,0.082-0.064,0.133-0.078c0.027-0.007,0.122-0.031,0.215-0.031c0.186,0,0.277,0.097,0.288,0.12
		c0.029,0.026,0.085,0.06,0.119,0.081l0.218,0.068c0.067,0.021,0.125,0.065,0.163,0.124l0.027,0.042l0.218-0.048
		c0.021-0.005,0.043-0.007,0.064-0.007c0.063,0,0.123,0.019,0.175,0.056l0.109,0.078c0.079,0.056,0.126,0.147,0.126,0.244v0.156
		c0,0.076-0.029,0.148-0.08,0.204l-0.15,0.162l0.283-0.051c0.018-0.003,0.035-0.005,0.053-0.005c0.053,0,0.104,0.013,0.149,0.04
		l0.113,0.064c0.001,0,0.003,0,0.005,0c0.084,0,0.164,0.029,0.23,0.083c0.087,0.05,0.137,0.13,0.211,0.252l0.037,0.061h0.02h0.285
		l0.27-0.082c0.029-0.008,0.058-0.012,0.086-0.012c0.076,0,0.15,0.028,0.207,0.082l0.227,0.214l0.443,0.121
		c0.025,0.007,0.051,0.018,0.074,0.032l0.236,0.142l0.113-0.022c0.02-0.004,0.039-0.006,0.059-0.006
		c0.079,0,0.156,0.031,0.213,0.088l0.088,0.088l0.096,0.063l0.227,0.151h0.361c0.02,0,0.039,0.001,0.059,0.005
		c0.013-0.04,0.034-0.078,0.063-0.109l0.109-0.122l0.06-0.129c0.048-0.107,0.155-0.176,0.272-0.176l0.299,0.004l0.578,0.094
		c0.061,0.01,0.113,0.037,0.156,0.076l0.172-0.07l0.118-0.032l0.063-0.101c0.055-0.089,0.151-0.143,0.255-0.143l0.371,0.003
		c0.184,0.026,0.291,0.028,0.303,0.028c0.057,0,0.114,0.017,0.162,0.049l0.32,0.209l0.28-0.023l0.022-0.053
		c0.047-0.11,0.156-0.182,0.275-0.182l0.103,0.001l0.391,0.031c0.046,0.003,0.089,0.017,0.128,0.041l0.584,0.346l0.012,0.005v-0.217
		c0-0.077,0.029-0.151,0.082-0.207l0.313-0.328c0.015-0.015,0.031-0.029,0.049-0.041l0.438-0.297
		c0.037-0.025,0.079-0.042,0.123-0.048l0.479-0.07l0.17-0.048c-0.065-0.16-0.12-0.273-0.12-0.273l-0.125-0.359c0,0,0-0.188,0-0.297
		s-0.078-0.422-0.078-0.422s-0.25-0.359-0.375-0.547s-0.172-0.25-0.281-0.422c-0.105-0.167-0.865-0.32-0.977-1.093
		c-0.004-0.021-0.006-0.042-0.008-0.063c-0.039-0.418-0.102-0.521-0.155-0.521c-0.052,0-0.095,0.1-0.095,0.1l-0.484-0.453
		l-0.141-0.438l0.063-0.313L36.781,13c0,0-0.563-0.453-0.578-0.5s-0.297-0.453-0.297-0.453l0.297-0.156l-0.922-1.047l-0.625-0.781
		l-1.75-2.141l-1.141-1.547c0,0-0.344-0.359-0.344-0.609S31.25,4.844,31.25,4.844l-0.313-0.516l-0.391-0.844L30.218,2.75
		l-0.344-0.531c0,0-0.156-0.438-0.156-0.484s0.031-0.359-0.031-0.453s-0.328-0.156-0.359-0.453S29.25,0.094,29.25,0.094L28.609,0
		L28.39,0.594l0.078,1.109l-0.703,0.703l-0.391,0.422l-0.781,0.547c0,0-0.156,0.203-0.75,0.297s-1.046,0.094-1.046,0.094
		l-0.625-0.141L23.83,3.703L23.5,3.813l-0.719-0.359c0,0-0.259-0.114-0.542-0.114c-0.064,0-0.129,0.006-0.193,0.021
		c-0.344,0.078-0.844,0.188-0.844,0.188h-0.406l-0.422,0.078l-0.25,0.219l-0.453-0.109l-0.516-0.141h-0.922c0,0-0.172,0-0.219,0.031
		s-0.625,0.094-0.672,0.094s-0.984,0.016-0.984,0.016l-0.375,0.297c0,0-0.02,0.015-0.025,0.02c0.007,0.009,0.022,0.009,0.028,0.019
		L16.234,4.474z"/>
	<path fill="#2F3B90" d="M23.219,47.945C23.218,47.945,23.218,47.945,23.219,47.945c-0.054-0.029-0.117-0.05-0.174-0.075
		l-0.344,0.438l0.268,0.13h0.156l0.255-0.344l-0.161-0.125V47.945z"/>
	<g>
		<path fill="#2F3B90" d="M5.125,46.391l0.188-0.25v-0.025c-0.055-0.046-0.097-0.105-0.108-0.177
			c-0.015-0.091,0.013-0.183,0.075-0.251l0.016-0.018c-0.006-0.068-0.006-0.146,0.018-0.186c0.047-0.078,0-0.375,0-0.375
			l-0.266,0.156l-0.242,0.266l-0.242,0.281V46l0.484,0.297L5.125,46.391z"/>
		<path fill="#2F3B90" d="M5.484,46.766l-0.281,0.266c0.047,0,0.13,0.078,0.13,0.078l0.213,0.125v0.141v0.266l-0.172,0.141
			l0.469-0.188l0.172-0.188v-0.641H5.672H5.484z"/>
		<path fill="#2F3B90" d="M4.413,48.907h0.15l0.219-0.141c0,0,0.061-0.058,0.122-0.105v-0.02c0-0.063,0.034-0.111,0.066-0.159
			c-0.009-0.036-0.02-0.071-0.021-0.114c-0.005-0.117-0.026-0.117-0.073-0.195s-0.094-0.203-0.094-0.203l-0.359,0.109l-0.313,0.219
			l-0.266,0.281v0.188h0.375L4.413,48.907z"/>
		<path fill="#2F3B90" d="M5.203,49.404h0.548l0.108-0.216c0,0-0.344-0.203-0.438-0.422c-0.05-0.118-0.072-0.145-0.082-0.145
			c-0.008,0-0.007,0.02-0.007,0.02H5.26H5.203v0.119v0.053l-0.222,0.203H4.948l-0.182,0.156l0.119,0.244
			c0.021-0.005,0.042-0.013,0.063-0.013c0.03,0,0.052,0.025,0.08,0.034l0.104-0.025C5.155,49.407,5.179,49.404,5.203,49.404z"/>
		<path fill="#2F3B90" d="M7.766,48.413l-0.188-0.131l-0.172-0.078H7.148v0.417H6.953l-0.25,0.163l-0.078,0.123l0.094,0.178
			l0.219-0.178l0.328,0.109l0.141,0.328c0,0,0.118,0.021,0.225,0.021c0.053,0,0.104-0.005,0.135-0.021c0,0,0.016-0.375,0-0.438
			s-0.172-0.141-0.172-0.141s0,0,0.016-0.063S7.75,48.563,7.766,48.413z"/>
		<path fill="#2F3B90" d="M3.326,50.576l0.023-0.098c0.005-0.02,0.018-0.034,0.026-0.053v-0.003v-0.203c0,0-0.08-0.02,0.056-0.02
			c0.034,0,0.082,0.001,0.147,0.004c0.328,0.016,0.328,0.016,0.328,0.016l0.141-0.234L3.969,49.75l0.078-0.203L3.398,49.86
			l-0.07,0.063l-0.453-0.094l0.016,0.156L2.75,50.422l0.141,0.203H3h0.036c0.04-0.02,0.074-0.05,0.121-0.05H3.326z"/>
		<polygon fill="#2F3B90" points="5.087,49.85 5.186,49.954 5.313,50.086 5.688,50.086 5.781,49.895 5.781,49.758 5.781,49.704 
			5.274,49.704 5.203,49.704 5.111,49.726 4.996,49.754 5.077,49.839 		"/>
		<path fill="#2F3B90" d="M4.109,50.875c0,0-0.109-0.234-0.172-0.25c-0.021-0.005-0.045-0.007-0.068-0.007
			c-0.046,0-0.088,0.007-0.088,0.007l-0.106-0.06l-0.034-0.019L3.57,50.844l-0.007,0.031H3.496H3.156v0.05v0.2l0.094,0.188
			c0,0,0.219,0.031,0.266,0.047s0,0.141,0,0.141l0.225-0.075c0.011-0.01,0.017-0.023,0.029-0.032c0.03-0.021,0.065-0.022,0.099-0.03
			c0.054-0.063,0.203-0.238,0.241-0.315C4.156,50.954,4.109,50.875,4.109,50.875z"/>
		<polygon fill="#2F3B90" points="5.781,52.032 5.859,52.016 6.188,51.838 6.188,51.657 5.953,51.5 5.703,51.375 5.5,51.5 
			5.333,51.735 5.313,51.969 5.203,52.047 5.453,52.157 		"/>
		<path fill="#2F3B90" d="M4.281,52.86v0.203c0.109-0.047,0.281-0.219,0.281-0.219v-0.297l-0.15-0.391l-0.084-0.172L4.25,51.766
			l-0.28-0.112l-0.033-0.013v0.034v0.091v0.531l0.344,0.234V52.86z"/>
		<path fill="#2F3B90" d="M7.775,53.155L7.687,53.14c-0.057-0.009-0.11-0.034-0.152-0.072c-0.136-0.122-0.302-0.252-0.378-0.298
			c-0.101-0.005-0.211-0.056-0.359-0.276v0.163l0.094,0.297H6.797c0,0-0.172,0.047-0.375,0.281c-0.061,0.07-0.097,0.094-0.12,0.094
			c-0.047,0-0.041-0.1-0.091-0.1c-0.007,0-0.014,0.002-0.023,0.006c0,0-0.375,0.343-0.406,0.437L5.364,54l-0.031,0.094l-0.021,0.281
			H5.147l-0.166,0.141l0.331,0.563l0.172,0.063v0.109l0.125,0.297l0.406-0.156l0.609-0.141l0.172-0.125l0.125,0.078
			c0,0,0,0,0.277-0.031v-0.188c0,0,0.192-0.219,0.301-0.281c0.044-0.025,0.072-0.032,0.091-0.032c0.028,0,0.034,0.017,0.034,0.017
			s0.047-0.125,0.147-0.344c0.047-0.103,0.069-0.129,0.079-0.129c0.012,0,0.008,0.035,0.008,0.035l0.047-0.141l0.125-0.266
			c0,0,0-0.094,0-0.141s0-0.125,0-0.125L7.938,53.36L7.775,53.155z"/>
		<path fill="#2F3B90" d="M4.854,55.928c-0.009,0-0.018,0.004-0.026,0.01c-0.019,0.014-0.056,0.018-0.099,0.018
			C4.63,55.956,4.5,55.93,4.5,55.93l-0.25,0.008l-0.12,0.297l0.12,0.203l0.731-0.125v-0.266C4.981,56.047,4.913,55.928,4.854,55.928
			z"/>
		<polygon fill="#2F3B90" points="10.406,57.157 10.148,57.219 10.063,57.594 9.875,57.688 9.719,58 9.609,58.125 9.664,58.422 
			10.375,58.422 10.375,58.211 10.453,58 10.563,57.704 10.688,57.407 10.563,57.157 		"/>
		<path fill="#2F3B90" d="M13.266,56.063c0.328,0,0.469-0.281,0.469-0.281l-0.083-0.061H13.5c-0.079,0-0.149-0.033-0.203-0.084
			l-0.079,0.066l-0.391-0.157h-0.047l-0.297,0.157h-0.281l-0.172-0.157L11.958,55.4c-0.064-0.04-0.12-0.096-0.139-0.17
			c-0.01-0.038-0.009-0.077-0.004-0.116l-0.081-0.161h-0.328h-0.188l-0.021,0.021l0.021,0.178c0.006,0.055-0.002,0.109-0.024,0.159
			l-0.171,0.38l0.069,0.139l0.484,0.355l0.156,0.145h0.484v-0.281l0.375-0.117l0.297,0.117l0.271,0.057
			C13.107,56.092,13.008,56.063,13.266,56.063z"/>
		<path fill="#2F3B90" d="M13.953,57.79L13.813,57.5l-0.156-0.156H13.5l-0.234,0.266l0.141,0.469l0.208,0.125
			c0,0,0.167-0.016,0.276-0.125s0.063-0.141,0.063-0.141V57.79z"/>
		<path fill="#2F3B90" d="M14.219,54.953c-0.078,0-0.688,0-0.688,0c-0.203-0.141-0.625-0.422-0.625-0.422l-0.563,0.172v0.125
			l-0.198,0.277l-0.037,0.051l0.082,0.039l0.309,0.148l0.297-0.313l0.433-0.072c-0.01,0.01-0.009,0.027,0.036,0.072
			c0.094,0.094,0.234,0.203,0.234,0.203v0.043v0.145h0.248h0.362h0.109c0,0-0.016-0.234,0-0.328
			c0.015-0.092,0.076-0.141,0.004-0.141C14.222,54.953,14.22,54.953,14.219,54.953z"/>
		<path fill="#2F3B90" d="M16.641,53.75l-0.016,0.094l-0.281-0.094h-0.234c0,0,0.031,0.172,0,0.258s0.109,0.43,0.109,0.43
			l0.078,0.094c0,0,0.156,0,0.203,0s0.625,0,0.625,0s0.047-0.063,0.078-0.219s0.078-0.484,0.078-0.484l-0.453-0.078H16.641z"/>
		<path fill="#2F3B90" d="M15.109,55.234h-0.453l-0.125,0.485l-0.109,0.211l0.234,0.148l0.234-0.148l0.016-0.29l0.188-0.094
			l0.188,0.384h0.234l0.25-0.384c0,0-0.578-0.156-0.609-0.234S15.156,55.312,15.109,55.234z"/>
		<path fill="#2F3B90" d="M19.703,53.921l0.021,0.088l0.072,0.287c0,0,0.344,0.125,0.344,0.234s0,0.203,0,0.203l0.313-0.219h0.094
			l0.141-0.219l-0.328-0.375H19.703z"/>
		<path fill="#2F3B90" d="M23.016,53.172v-0.266h-0.234h-0.484v0.156v0.094l0.391,0.296l0.151,0.188c0,0,0.318,0.078,0.396,0.109
			c0.009,0.004,0.017,0.005,0.025,0.005c0.067,0,0.12-0.099,0.12-0.099v-0.219l-0.224-0.14L23.016,53.172z"/>
		<path fill="#2F3B90" d="M22.1,48.266h0.147h0.065l0.05-0.051l0.025,0.006l0.383-0.488l0.098-0.125l0.083-0.105l0.096-0.122
			l0.095-0.121l0.077-0.098l0.161-0.229l0.167-0.291c0,0-0.641-0.396-0.708-0.469c-0.068-0.073-0.12-0.281-0.12-0.281
			s-0.104-0.125-0.292-0.375s-0.313-0.25-0.313-0.25l-0.313-0.156l-0.208-0.219l-0.208-0.354v-0.313v-0.375v-0.104l-0.14-0.311
			c-0.04,0.019-0.077,0.041-0.121,0.041c-0.007,0-0.015-0.002-0.022-0.002c-0.016-0.002-0.032-0.003-0.048-0.006
			c-0.088-0.021-0.162-0.081-0.2-0.163l0-0.001l-0.054-0.112h-0.02c-0.072,0-0.141-0.025-0.195-0.072l-0.291-0.249l-0.236-0.201
			l-0.256-0.054l-0.021,0.021l-0.395,0.425l-0.126,0.27c-0.05,0.106-0.157,0.173-0.272,0.173c-0.016,0-0.031-0.001-0.047-0.004
			c-0.132-0.021-0.234-0.128-0.25-0.261c-0.002-0.019-0.006-0.04-0.01-0.061l-0.257,0.082c-0.03,0.009-0.061,0.014-0.091,0.014
			c-0.012,0-0.023-0.001-0.035-0.002l-1.052-0.125c-0.043-0.005-0.084-0.02-0.119-0.041l-0.032,0.015
			c-0.041,0.02-0.083,0.028-0.126,0.028c-0.073,0-0.146-0.026-0.202-0.078l-0.05,0.034l-0.266,0.209
			c-0.053,0.042-0.119,0.064-0.186,0.064c-0.017,0-0.035-0.001-0.052-0.004l-0.838-0.146c-0.144-0.025-0.248-0.15-0.248-0.296v-0.18
			l-0.102-0.205l-0.208-0.5c-0.009-0.021-0.016-0.045-0.02-0.068c-0.024,0.08-0.081,0.146-0.159,0.184
			c-0.041,0.02-0.084,0.028-0.128,0.028c-0.068,0-0.136-0.023-0.191-0.068l-0.21-0.174l-0.194-0.065
			c-0.03-0.01-0.059-0.025-0.084-0.044l-0.083-0.063c-0.098-0.073-0.188-0.209-0.245-0.311c-0.06-0.045-0.165-0.121-0.255-0.179
			c0,0-0.001,0-0.001,0c-0.021,0.005-0.042,0.007-0.063,0.007c-0.098,0-0.191-0.048-0.248-0.131l-0.063-0.092l-0.008,0.007
			l-0.271,0.179l-0.184,0.102v0.053v0.375c0,0.042-0.009,0.083-0.025,0.122l-0.203,0.458c-0.046,0.104-0.148,0.173-0.263,0.178
			c-0.146,0.006-0.314,0.025-0.399,0.044c-0.057,0.078-0.167,0.2-0.389,0.386c-0.054,0.046-0.122,0.07-0.193,0.07h-0.121
			c-0.324,0.125-0.546,0.188-0.661,0.188c-0.027,0-0.053-0.003-0.079-0.011l-0.458-0.125c-0.104-0.028-0.185-0.11-0.212-0.216
			c0-0.002-0.039-0.154-0.077-0.27l-0.005-0.016c-0.051-0.029-0.112-0.059-0.114-0.06c-0.068-0.034-0.121-0.092-0.148-0.162
			l-0.104-0.271c-0.006-0.017-0.011-0.033-0.014-0.05c-0.044-0.229-0.095-0.31-0.093-0.324c-0.015,0.002-0.039,0.01-0.056,0.015
			c-0.048,0.014-0.108,0.031-0.176,0.031c-0.036,0-0.098-0.011-0.132-0.023c-0.032-0.012-0.044-0.048-0.07-0.069
			c-0.014,0.115,0.019,0.294,0.16,0.569c0,0-0.067-0.09-0.151-0.09c-0.087,0-0.191,0.098-0.255,0.496L8,43.297H7.875
			c0,0-0.141,0.313-0.141,0.359S7.672,44,7.672,44l-0.203-0.109L7.375,44.11l0.016,0.297h0.531l0.109,0.172L8,44.829l0.016,0.281
			l0.281,0.219l0.219,0.125l0.156,0.297h0.266v0.078c0,0,0.047,0.141,0,0.188s-0.063,0.063-0.125,0.125s-0.297,0.188-0.297,0.188
			s-0.188-0.094-0.203-0.203s-0.422-0.391-0.422-0.391l-0.016-0.078l-0.078-0.094l0.031-0.344c0,0,0.104-0.31-0.035-0.31
			c-0.023,0-0.052,0.008-0.09,0.028c-0.266,0.141-0.188,0.422-0.188,0.422l-0.422-0.266l-0.438-0.016c0,0,0.016,0.328-0.031,0.375
			s-0.141,0.125-0.141,0.125l-0.078-0.016l-0.375-0.156l-0.188,0.109L5.61,45.771l-0.11,0.12l0.112,0.063l0.31,0.172L6.25,46.5
			l0.219,0.141h0.375l0.406-0.188l0.094-0.203v-0.188l0.328,0.047l0.047,0.188l0.234,0.141l0.281,0.047l0.047,0.234l-0.375,0.234
			l-0.375,0.375v0.406l0.703,0.344l0.016,0.344l0.094,0.563l-0.266,0.422c0,0-0.094,0.219-0.094,0.266s0,0.625,0,0.625L7.922,50.75
			L7.734,50.86l-0.344-0.266c0,0-0.292-0.303-0.407-0.303c-0.026,0-0.043,0.016-0.046,0.053c-0.016,0.203-0.094,0.844-0.094,0.844
			v0.766c0,0,0.06,0.13,0.131,0.259c0.05,0.092,0.103,0.165,0.149,0.211c0.019,0.019,0.04,0.047,0.055,0.047
			c0.003,0,0.006,0,0.008-0.001c0.003-0.001,0.007-0.002,0.012-0.002c0.07,0,0.248,0.137,0.38,0.246
			c0.084,0.069,0.155,0.131,0.155,0.131l0.204,0.033l0.374,0.061l0.359,0.172l0.297,0.577l0.078,0.5c0,0-0.031,0.188-0.031,0.234
			s0.141,0.234,0.141,0.234h0.203h0.109c0,0,0,0.156-0.125,0.406s-0.125,0.25-0.125,0.25v0.156l0.547,0.078v0.094
			c0,0,0.016,0.063,0.016,0.142s-0.184,0.453-0.184,0.453h0.262l0.297-0.188l0.094-0.094l0.391-0.141l0.052-0.115l0.177-0.395
			l0.052-0.116l-0.005-0.041l-0.034-0.281l-0.008-0.068l0.141-0.094l0.359-0.25l0.563-0.422l0.141-0.328l0.219-0.577l0.078-0.719
			l0.016-0.422l0.313,1.577c0,0-0.141,0.609,0.5,0.656l0.422,0.25l-0.063-0.391l0.319,0.016l0.321,0.047l0.094-0.422l0.203,0.094
			c0,0,0.016-0.219,0-0.266s0.007-0.374,0.007-0.374v-0.109l0.274-0.406v-0.328l0.078-0.203c0,0-0.047-0.277,0-0.287
			s0.563-0.307,0.563-0.307l0.438-0.172l0.156-0.188c0,0,0.078-0.094,0.125-0.125s0.281-0.125,0.281-0.125l0.391-0.109l0.203-0.234
			l0.156-0.25l0.125-0.063l0.422,0.172l0.594-0.109l0.141,0.422l-0.078,0.359l-0.25,0.406c0,0-0.391-0.047-0.328-0.484
			c0.019-0.131-0.026-0.192-0.092-0.192c-0.155,0-0.43,0.333-0.298,0.88L17.109,52l-0.203-0.297l-0.188,0.328l-0.063,0.078
			L16.391,52.5l-0.234,0.203c-0.047,0.109-0.125,0.391-0.125,0.391l0.063,0.234h0.703c0,0,0.234-0.047,0.313-0.047
			s0.391,0.233,0.391,0.233l0.297,0.203l0.313,0.391l0.188,0.234c0,0,0.359-0.125,0.406-0.234s0.406-0.422,0.406-0.422
			s-0.044,0.034-0.058,0.034c-0.011,0-0.004-0.021,0.058-0.097c0.141-0.172,0.313-0.483,0.313-0.483
			c0-0.094-0.141-0.766-0.141-0.766l0.344-0.016l0.516,0.203l0.219-0.359l-0.172-0.563l-0.625-0.578l-0.531-0.469l-0.094-0.234
			l0.172-0.266v-0.203c-0.047-0.125-0.047-0.125-0.047-0.125l0.266-0.297l-0.25-0.266l0.906-0.141l0.172-0.219l0.203-0.172
			l0.266,0.5c0,0-0.094,0.172,0,0.25s0.141,0.156,0.141,0.156l0.156,0.234c0,0-0.012-0.016-0.018-0.016s-0.006,0.016,0.018,0.078
			c0.047,0.125,0.141,0.594,0.141,0.594s-0.031,0.016,0,0.094s0,0.141,0,0.141l0.014,0.203c0,0-0.17,0.078-0.201,0.281
			s-0.063,0.344-0.063,0.344l0.547,0.307l0.375,0.1v-0.5V51.11c0,0,0-0.125,0-0.203s0.156-0.547,0.156-0.547L22,50.282
			c0,0,0.063,0.109,0.141,0.109s0.078,0,0.078,0l0.172,0.172l0.375-0.031l0.344,0.391l-0.078,0.438L22.828,51.5l-0.156,0.338
			l-0.058,0.256l0.417,0.156l0.188,0.078l0.161,0.016v-0.266v-0.24v-0.213v-0.094v-0.5l-0.083-0.188l-0.125-0.156l-0.234-0.344
			l-0.094-0.281c0,0-0.022,0.017-0.037,0.017c-0.017,0-0.022-0.023,0.037-0.126c0.109-0.188,0.203-0.344,0.203-0.391
			s-0.078-0.672-0.078-0.672l-0.704-0.078l-0.156-0.016l-0.141,0.125l-0.234-0.078l-0.375-0.313l-0.25-0.344l0.594,0.078H22.1z
			 M15.226,44.921l-0.165,0.272v0.26c0,0.057-0.016,0.112-0.046,0.16l-0.21,0.329l-0.125,0.146c-0.073,0.12-0.222,0.248-0.421,0.248
			l-0.285-0.002c-0.006-0.001-0.056-0.007-0.113-0.007c-0.024,0-0.051,0.001-0.073,0.005c-0.03,0.006-0.111,0.049-0.167,0.087
			c-0.015,0.01-0.031,0.02-0.047,0.026l-0.487,0.219c-0.039,0.018-0.081,0.026-0.123,0.026h-0.117h-0.271
			c-0.043,0-0.085-0.009-0.125-0.026l-0.229-0.104c-0.017-0.008-0.033-0.018-0.048-0.028l-0.354-0.25
			c-0.08-0.057-0.127-0.147-0.127-0.245v-0.051l-0.809-0.2c-0.078-0.019-0.145-0.068-0.186-0.137
			c-0.042-0.069-0.053-0.151-0.033-0.229l0.09-0.348v-0.243c0-0.02,0.002-0.039,0.006-0.059l0.021-0.104
			c-0.01-0.019-0.019-0.038-0.024-0.059c-0.068-0.233,0.133-0.36,0.241-0.429l0.435-0.276c0.293-0.461,0.427-0.499,0.559-0.499
			c0.125,0,0.268,0.067,0.425,0.2l0.197,0.116l0.267,0.119l0.367-0.128c0.032-0.011,0.065-0.017,0.099-0.017h0.006l0.155-0.185
			c0.059-0.069,0.144-0.106,0.229-0.106c0.05,0,0.1,0.012,0.146,0.038l0.523,0.291c0.095,0.053,0.154,0.153,0.154,0.262v0.229
			l0.308,0.114c0.024,0.009,0.047,0.021,0.068,0.036l0.208,0.146C15.271,44.612,15.307,44.787,15.226,44.921z"/>
	</g>
	<g>
		<polygon fill="#647FBF" points="6.891,39.125 6.797,39.407 6.984,39.547 7.406,39.172 7.5,39.016 7.313,38.797 		"/>
		<path fill="#647FBF" d="M24.239,34.872v-0.106l0.125-0.25v-0.229l-0.291-0.596h-0.146H23.92l-0.007,0.004l-0.13,0.086
			l-0.071,0.047c-0.026,0.018-0.056,0.031-0.087,0.04l-0.307,0.083c-0.025,0.007-0.052,0.01-0.079,0.01h-0.417
			c-0.057,0-0.112-0.016-0.16-0.046l-0.323-0.204h-0.288c-0.039,0-0.078-0.007-0.114-0.022l-0.237-0.097
			c-0.003,0.055-0.017,0.11-0.049,0.156l-0.188,0.271c-0.056,0.081-0.148,0.129-0.247,0.129c-0.005,0-0.01,0-0.015,0
			c-0.104-0.005-0.197-0.063-0.248-0.154l-0.107-0.193l-0.104,0.016c-0.021,0.16-0.136,0.283-0.247,0.365v0.021
			c0,0.166-0.134,0.3-0.3,0.3h-0.292h-0.25c-0.114,0-0.217-0.064-0.269-0.166l-0.082-0.164l-0.097-0.13l-0.057,0.037
			c-0.049,0.031-0.105,0.047-0.162,0.047c-0.028,0-0.055-0.003-0.083-0.011c-0.083-0.024-0.151-0.082-0.188-0.16l-0.183-0.387
			l-0.168-0.333l-0.274-0.407l-0.06-0.126l-0.16,0.08c-0.032,0.016-0.067,0.026-0.103,0.03l-0.056,0.049l-0.125,0.179
			c-0.056,0.081-0.148,0.128-0.246,0.128c-0.002,0-0.005,0-0.008,0c-0.101-0.002-0.193-0.056-0.247-0.141l-0.007-0.012l-0.017,0.015
			c-0.056,0.049-0.127,0.076-0.201,0.076c-0.023,0-0.047-0.003-0.071-0.008c-0.02-0.005-0.063-0.013-0.095-0.013h-0.087
			l-0.295,0.222c-0.053,0.04-0.117,0.06-0.18,0.06c-0.055,0-0.11-0.015-0.159-0.045l-0.197-0.123l-0.355-0.053
			c-0.147-0.022-0.255-0.148-0.255-0.297v-0.231c-0.041-0.027-0.094-0.062-0.146-0.092l-0.695-0.174l-0.148,0.061l-0.271,0.126
			l-0.139,0.126l-0.146,0.421v0.158c0,0.106-0.056,0.205-0.148,0.259l-0.383,0.223c0,0-0.44,0.197-0.506,0.219
			c-0.051,0.017-0.109,0.025-0.183,0.025c-0.006,0-0.012,0-0.018,0c-0.042,0.048-0.09,0.111-0.134,0.177
			c-0.055,0.085-0.15,0.136-0.251,0.136h-0.219h-0.313c-0.042,0-0.08-0.021-0.118-0.038l-0.414,0.207l-0.234-0.141l-0.234,0.047
			h-0.453H9.781c0,0-0.243,0.203-0.184,0.25c0.02,0.016,0.047,0.021,0.074,0.021c0.054,0,0.11-0.021,0.11-0.021l0.484,0.156h0.188
			l0.359,0.094l-0.094,0.364l-0.016,0.199l0.344,0.125h0.25l0.125-0.203l0.344,0.078l0.141,0.031l0.25,0.094l0.297-0.234
			l0.141-0.089h0.125h0.313h0.188l-0.5,0.246v0.266h-0.078h-0.719l-0.141,0.204h-0.188l0.172,0.266l0.297,0.172l0.125,0.203
			l0.281,0.156l-0.031,0.359l-0.344-0.313h-0.297l-0.641-0.031l-0.047-0.109l-0.313,0.578l-0.344,0.5l-0.406,0.25l-0.234,0.125
			l-0.391,0.297l-0.375,0.297L9,39.204l0.344,0.219l0.594-0.188l1.047,0.031c0,0,0.219,0.047,0.234,0.156s0.094,0.609,0.094,0.609
			l-0.438-0.266L10.5,40.032h-0.281l-0.297-0.141L9.5,40.032l-0.063,0.109L9.219,40.5c0,0-0.188,0.281-0.234,0.313
			s-0.219,0.328-0.219,0.328l-0.001,0.002L8.682,41.3l-0.088,0.169c0.008,0.003,0.017,0.004,0.026,0.004
			c0.059,0,0.147-0.047,0.243-0.047c0.136,0,0.285,0.097,0.377,0.568l0.104,0.271c0,0,0.125,0.062,0.188,0.104
			s0.042,0.021,0.083,0.146s0.083,0.291,0.083,0.291l0.458,0.125c0.125,0,0.604-0.188,0.604-0.188h0.177
			c0,0,0.323-0.271,0.365-0.375s0.604-0.125,0.604-0.125l0.203-0.458v-0.375v-0.229l0.339-0.188l0.25-0.166l0.229-0.209l0.256,0.375
			c0,0,0.006-0.036,0.054-0.036c0.024,0,0.058,0.009,0.106,0.036c0.146,0.084,0.391,0.271,0.391,0.271s0.109,0.208,0.193,0.271
			s0.083,0.063,0.083,0.063l0.247,0.083l0.253,0.209v-0.25l0.229-0.188l0.167-0.188l0.188-0.146l0.083,0.25v0.229l-0.083,0.333
			l0.208,0.5l0.125,0.25v0.25l0.838,0.146l0.266-0.209l0.271-0.188l0.167,0.167l0.313-0.146v0.146l1.052,0.125l0.26-0.083
			l0.229-0.063c0.125,0.021,0.167,0.375,0.167,0.375l0.146-0.313l0.427-0.459l0.141-0.146l0.492,0.104l0.294,0.25l0.292,0.25h0.196
			h0.012l0.063,0.133l0.072,0.151l0.073-0.056c0,0,0.018-0.034,0.034-0.067c0.022-0.043,0.049-0.1,0.084-0.173
			c0.082-0.17,0.173-0.376,0.173-0.447c0-0.047,0-0.057,0-0.059v-0.002c0-0.001,0-0.007,0-0.043c0-0.104,0.104-0.25,0.104-0.25
			l0.146-0.417c0,0,0.042-0.104,0.104-0.208c0.063-0.104,0-0.25,0-0.25l-0.063-0.209l-0.188-0.688v-0.083l-0.396-0.458v-0.219
			l0.167-0.261l0.125-0.313V38.62l0.104-0.375c0,0,0.146-0.188,0.188-0.291c0.042-0.104,0.063-0.438,0.125-0.584s0-0.271,0-0.271
			s0.188-0.146,0.391-0.354s0.151-0.291,0.151-0.291l0.166-0.5h0.647l0.286-0.104l0.283-0.188l0.212-0.353l0.052-0.086l0.059-0.017
			l0.159-0.044l-0.072-0.084v-0.052V34.872z"/>
	</g>
	<path fill="#5E8AC7" d="M19.903,29.741l0.105-0.106l0.018-0.347l0.04-0.302c-0.031,0.011-0.064,0.016-0.097,0.016
		c-0.043,0-0.086-0.009-0.126-0.028c-0.106-0.049-0.173-0.155-0.173-0.272v-0.35l-0.019-0.029l-0.097,0.055
		c-0.045,0.025-0.096,0.038-0.147,0.038H19.24c-0.108,0-0.208-0.059-0.262-0.153l-0.205-0.366l-0.025,0.032v0.085
		c0,0.05-0.012,0.1-0.036,0.144l-0.125,0.229c-0.034,0.063-0.09,0.111-0.156,0.137l-0.228,0.087l-0.172,0.137
		c-0.022,0.018-0.051,0.027-0.078,0.038c0.001,0.028,0.003,0.056,0.003,0.082v0.333c0,0.027-0.003,0.054-0.011,0.08
		c-0.038,0.136-0.103,0.396-0.116,0.516c-0.014,0.12-0.041,0.245-0.063,0.333l0.092,0.19c0.055,0.174,0.128,0.392,0.149,0.435
		c0.016,0.032,0.027,0.062,0.035,0.09c0.03,0.029,0.063,0.062,0.099,0.097l0.104-0.314c0.025-0.075,0.08-0.138,0.151-0.173
		l0.208-0.104c0.042-0.021,0.088-0.031,0.134-0.031s0.092,0.01,0.134,0.032c0.084,0.042,0.144,0.122,0.161,0.214l0.021,0.115
		l0.257,0.197l0.126,0.093l0.347-0.321c0.017-0.016,0.038-0.023,0.057-0.035c-0.004-0.049-0.012-0.084-0.012-0.084
		c-0.011-0.032-0.017-0.065-0.017-0.099v-0.479C19.815,29.874,19.846,29.797,19.903,29.741z"/>
	<path fill="#2F3B90" d="M16.881,27.365l0.152,0.252l0.481,0.229c0.066,0.032,0.119,0.087,0.147,0.155l0.055,0.13l0.036,0.073
		l0.023,0.046c0.033,0.018,0.058,0.045,0.083,0.074c0.032,0.037,0.053,0.08,0.064,0.128l0.13-0.104l0.271-0.104l0.125-0.229v-0.188
		l0.208-0.271l0.017-0.017c0-0.003,0-0.007-0.001-0.01c-0.008-0.05-0.022-0.104-0.015-0.147c0-0.001,0-0.002,0-0.002
		c0.001-0.008,0.007-0.014,0.009-0.022c0.015-0.059,0.048-0.107,0.092-0.147c0.016-0.017,0.028-0.026,0.046-0.04
		c0.004-0.003,0.007-0.008,0.012-0.011l-0.006-0.009l-0.206-0.294h-0.156c-0.099,0-0.187-0.048-0.241-0.122l-0.262-0.078
		c-0.127-0.038-0.214-0.155-0.214-0.288v-0.204L17.67,26.07l-0.155-0.25c-0.047-0.075-0.058-0.167-0.03-0.251
		c0,0,0.084-0.256,0.125-0.434l-0.212-0.007c-0.054-0.002-0.106-0.018-0.151-0.047l-0.416-0.269l-0.259-0.111
		c0.049,0.127,0.133,0.354,0.153,0.474c0.021,0.127,0.013,0.228,0.004,0.286v0.04l0.15,0.376l0.093,0.142
		c0.037,0.056,0.054,0.123,0.048,0.189l-0.021,0.25c-0.002,0.031-0.01,0.061-0.021,0.09c-0.036,0.087-0.07,0.201-0.078,0.256
		c0.055,0.154,0.007,0.32-0.057,0.451L16.881,27.365z"/>
	<g>
		<path fill="#647FBF" d="M9.031,20.22l0.063-0.283L8.75,20.109v0.25h0.239C9,20.309,9.014,20.263,9.031,20.22z"/>
		<polygon fill="#647FBF" points="7.719,29.547 7.719,29.766 8.109,29.766 8.109,29.328 8.016,29.328 		"/>
		<path fill="#B0D8F1" d="M21.314,33.386c-0.032-0.025-0.04-0.065-0.058-0.099c-0.052-0.095-0.069-0.206-0.006-0.302l-0.023-0.05
			l-0.149-0.216l-0.241-0.204c-0.067-0.057-0.106-0.141-0.106-0.229v-0.104l0.004-0.388l-0.042-0.25
			c-0.008-0.048-0.004-0.098,0.011-0.144l0.055-0.166c-0.034,0.013-0.069,0.019-0.104,0.019c-0.059,0-0.116-0.017-0.166-0.05
			l-0.188-0.125l-0.068,0.024c0,0,0,0-0.001,0c-0.032,0.012-0.066,0.017-0.099,0.017c-0.054,0-0.102-0.027-0.148-0.055
			c-0.015-0.009-0.033-0.006-0.046-0.017c-0.025-0.021-0.038-0.052-0.055-0.08l-0.322,0.298v0.167l-0.427-0.313l-0.354-0.271
			L18.74,30.62l-0.208,0.104c0,0-0.104,0.313-0.125,0.375s-0.188,0.417-0.188,0.417c-0.083-0.188-0.479-0.542-0.479-0.542
			s0.042,0,0-0.083s-0.167-0.479-0.167-0.479l-0.125-0.25c0,0,0.062-0.208,0.083-0.396s0.125-0.563,0.125-0.563s0-0.187,0-0.333
			c0-0.004,0-0.008,0-0.012c0-0.046-0.002-0.097-0.005-0.145c-0.003-0.058-0.008-0.112-0.011-0.149
			c-0.002-0.028-0.004-0.048-0.004-0.048h-0.063l-0.029-0.057l-0.063-0.127l-0.033-0.066l-0.063-0.148l-0.563-0.268l-0.214-0.354
			l-0.099-0.271c0,0,0.156-0.229,0.099-0.333s0.089-0.458,0.089-0.458l0.021-0.25l-0.109-0.167l-0.182-0.458v-0.125
			c0,0,0.021-0.083,0-0.208s-0.162-0.479-0.162-0.479V24.62l0.099-0.229h0.245l0.339,0.146l0.458,0.292l0.16,0.005
			c0.001-0.047,0.016-0.092,0.04-0.134c0.003-0.006,0.003-0.014,0.007-0.02c0.055-0.084,0.147-0.135,0.247-0.136l0,0l0.109-0.194
			l0.083-0.125c0.011-0.017,0.023-0.032,0.038-0.045l0.229-0.229c0.056-0.057,0.132-0.088,0.212-0.088h0.2v-0.104l-0.089-0.237
			c-0.097-0.119-0.201-0.237-0.254-0.289c-0.089-0.037-0.232-0.138-0.536-0.409c-0.028-0.024-0.051-0.056-0.068-0.089
			c-0.013-0.025-0.081-0.132-0.253-0.367c0,0,0,0,0-0.001l-0.107-0.146c-0.27-0.106-0.429-0.14-0.43-0.14
			c-0.081-0.016-0.151-0.065-0.195-0.134l-0.195-0.309l-0.492-0.177l-0.434,0.351c-0.038,0.031-0.083,0.052-0.132,0.061
			c-0.21,0.041-0.473,0.099-0.507,0.11c-0.105,0.078-0.21,0.124-0.486,0.163c-0.173,0.025-0.332,0.036-0.44,0.041l-0.047,0.057
			c-0.058,0.069-0.142,0.107-0.23,0.107c-0.012,0-0.024,0-0.037-0.002c-0.015-0.002-0.027-0.012-0.042-0.016
			c-0.016,0.018-0.038,0.042-0.038,0.042l-0.234,0.188l-0.297,0.344v0.281l0.031,0.219v0.109l-0.297-0.5v-0.25l-0.063-0.656v-0.25
			l-0.328-0.469l-0.453-0.297l-0.641-0.141l-0.25,0.281l-0.391-0.266l-0.453-0.156l-0.188-0.328l-0.141-0.078l-0.313-0.281
			c0,0-0.045-0.015-0.107-0.015c-0.084,0-0.197,0.031-0.27,0.163c-0.027,0.05-0.049,0.112-0.061,0.195c0,0,0,0,0,0.001l-0.031,0.172
			l0.203,0.563c0,0,0.03-0.009,0.08-0.009c0.16,0,0.519,0.091,0.686,0.868c0,0-0.367-0.688-0.768-0.688c-0.004,0-0.009,0-0.013,0
			c0,0,0.219,0.922-0.141,1.063c0,0,0.449-1.578-0.671-1.578c-0.005,0-0.011,0-0.017,0l-0.516,0.016l-0.25,0.094L7.75,21.188
			l0.172,0.063c0,0,0.047,0.063,0.094,0.141s0.25,0.281,0.25,0.281l0.109,0.156c0,0,0.078,0.031,0.125,0.109
			s0.125,0.328,0.125,0.328l-0.109,0.172l-0.219,0.141l-0.078,0.297l-0.094,0.094l-0.047,0.125l-0.141-0.188L7.75,22.797v0.063
			l-0.234,0.156v-0.219l0.438-0.484l-0.438-0.453v-0.234V21.25l-0.281,0.125v0.797L7,22.188l-0.125-0.047l-0.344,0.078l-0.297,0.234
			v0.281v0.188c0,0,0.063,0.016,0,0.063s-0.188,0.188-0.188,0.188l-0.094-0.25l-0.266,0.219l0.156,0.219l-0.281,0.484h-0.25
			L5.5,24.219h0.188l-0.125,0.391l0.266-0.125l0.016-0.219l0.063-0.078l0.328,0.063l0.094,0.109v0.25H6.094l-0.172,0.203
			c-0.016,0.125-0.016,0.234-0.016,0.234H5.719H5.547l0.078,0.234h0.359l0.375-0.125l0.125-0.234l0.203-0.031l0.219-0.172
			l0.453-0.156L7,25.031l0.188,0.172l0.141,0.188l0.078,0.203L7.375,26l-0.109,0.391h0.172l0.203,0.219v0.469l-0.031,0.391
			l-0.078,0.297l0.156,0.297l0.172,0.359l0.438,0.094l0.25,0.094l0.219,0.125l-0.016-0.25l-0.016-0.328l-0.172-0.391l-0.156-0.453
			l-0.25-0.609l-0.047-0.359v-0.188l-0.266-0.172l-0.188,0.094l0.219-0.328l-0.047-0.313L7.688,24.75l0.156-0.188L8,25.438
			l0.031,0.297l0.203,0.109l0.344,0.313l0.313-0.453l-0.016-0.422L9.016,25l0.031-0.172l0.328,1.203l-0.234,0.281l-0.063,0.141
			l0.031,0.375l0.094,0.078v0.25l0.125,0.156l-0.094,0.531l0.188,0.188l0.063,0.25l0.484-0.391l0.359-0.219l-0.078,0.281
			l-0.375,0.219l-0.516,0.453l0.238,0.531l0.45,0.188l0.203,0.234l-0.453,0.109l-0.266,0.141l0.297,0.313l0.141,0.266l-0.134,0.297
			c0.003-0.006,0.007-0.012,0.01-0.012c0.007,0,0.008,0.035-0.017,0.184c-0.047,0.281-0.016,0.406-0.016,0.406l0.125,0.125
			l-0.125,0.188c0,0-0.094,0.094-0.094,0.172s0,0.234,0,0.234H9.531v0.203l0.328-0.172l0.094,0.172h0.188
			c0,0,0.016,0.172,0.094,0.172s0.281,0.219,0.281,0.219L11,32.938l0.031,0.453l0.047,0.156l0.109,0.234l0.166,0.12l0.115,0.083
			h0.034h0.278H12c0.115-0.177,0.261-0.323,0.261-0.323s0.074,0.009,0.142,0.009c0.034,0,0.066-0.002,0.087-0.009
			c0.063-0.021,0.479-0.208,0.479-0.208l0.354-0.208v-0.208l0.188-0.542l0.229-0.208l0.313-0.146l0.252-0.104l0.831,0.208
			c0,0,0.333,0.188,0.333,0.25s0,0.354,0,0.354l0.417,0.063l0.25,0.156l0.375-0.281c0,0,0.104,0,0.188,0s0.167,0.021,0.167,0.021
			l0.188-0.167l0.188,0.063l0.104,0.167l0.146-0.208l0.167-0.146h0.083l0.333-0.167h0.125l0.167,0.354l0.25,0.365l0.188,0.365
			l0.188,0.396l0.292-0.188l0.281,0.375l0.094,0.188h0.25h0.292v-0.104v-0.083c0,0,0.25-0.125,0.25-0.25s0-0.208,0-0.208
			l0.563-0.083l0.208,0.375l0.188-0.271v-0.12L21.314,33.386z"/>
	</g>
	<path fill="#436BB3" d="M31.499,20.152c0.049-0.011,0.103-0.019,0.153-0.019c0.104,0,0.191,0.015,0.191,0.015l0.084-0.048
		l0.146-0.083l-0.121-0.08l-0.015-0.015l-0.095-0.094c0,0,0,0-0.156,0.031c-0.052,0.01-0.08,0.014-0.094,0.014
		c-0.027,0,0-0.014,0-0.014l-0.025-0.016l-0.287-0.172l-0.516-0.141l-0.281-0.266l-0.313,0.094h-0.328h-0.188c0,0,0,0-0.125-0.203
		s-0.094-0.125-0.141-0.172c-0.016-0.016-0.031-0.021-0.045-0.021c-0.027,0-0.049,0.021-0.049,0.021l-0.219-0.125l-0.688,0.125
		c0,0-0.141-0.078-0.141-0.141s0.016-0.156,0.016-0.156l0.406-0.438v-0.156l-0.109-0.078l-0.422,0.094L28,17.891l-0.25-0.078
		c0,0-0.188-0.109-0.219-0.156c-0.01-0.016-0.036-0.021-0.066-0.021c-0.061,0-0.137,0.021-0.137,0.021l-0.156,0.156l-0.141,0.203
		l-0.156-0.203l-0.406,0.203l-0.313,0.266l-0.391,0.094c0,0,0,0-0.125-0.172s0-0.188,0-0.188v-0.203l-0.422-0.234h-0.094h-0.343
		l-0.25,0.438l0.078,0.383v0.117l-0.266,0.188l-0.188,0.109l-0.078,0.031l-0.531,0.047l-0.5,0.094l-0.297-0.438l-0.053-0.096
		l-0.091,0.145l-0.032,0.05l-0.045,0.109l-0.064,0.157c-0.009,0.022-0.021,0.043-0.035,0.062l-0.099,0.13l-0.047,0.094
		c-0.051,0.102-0.155,0.166-0.269,0.166h-0.322l-0.023,0.129c-0.011,0.06-0.04,0.115-0.083,0.158l-0.06,0.058
		c-0.001,0.001-0.065,0.077-0.077,0.092c-0.027,0.06-0.066,0.212-0.066,0.215c-0.035,0.131-0.153,0.22-0.287,0.222
		c-0.108,0.15-0.187,0.231-0.198,0.241c-0.033,0.033-0.073,0.058-0.117,0.073l-0.281,0.094c-0.031,0.01-0.063,0.015-0.095,0.015
		c-0.02,0-0.041-0.002-0.061-0.006l-0.396-0.082c-0.07,0.059-0.167,0.143-0.253,0.22l-0.104,0.156
		c-0.056,0.083-0.149,0.133-0.25,0.133h-0.028L19.308,21.1l-0.01,0.078c-0.007,0.056-0.03,0.109-0.065,0.153l-0.062,0.075
		c-0.026,0.107-0.111,0.197-0.255,0.27c-0.141,0.07-0.363,0.209-0.365,0.209c-0.011,0.008-0.14,0.101-0.183,0.141
		c-0.021,0.022-0.071,0.072-0.228,0.133l-0.007,0.021l-0.022,0.063c-0.012,0.032-0.035,0.058-0.057,0.084
		c-0.01,0.012-0.014,0.027-0.025,0.037l-0.055,0.049c-0.009,0.008-0.023,0.006-0.033,0.013c0.051,0.074,0.093,0.139,0.111,0.174
		c0,0,0.396,0.354,0.458,0.354s0.396,0.417,0.396,0.417l0.125,0.333v0.458h-0.188h-0.313l-0.229,0.229l-0.083,0.125l-0.101,0.18
		l-0.086,0.154h-0.005l-0.163-0.006l0.043,0.089c0,0,0.01,0.02,0.015,0.063c0.003,0.031-0.002,0.086-0.012,0.149
		c-0.002,0.016,0.001,0.02-0.003,0.038c-0.042,0.188-0.137,0.479-0.137,0.479l0.155,0.25l0.106,0.167v0.292l0.417,0.125v0.063h0.313
		l0.414,0.594l0.065,0.093l-0.029,0.023l-0.078,0.063l-0.058,0.046l-0.044,0.035l-0.079,0.017c-0.003,0.021,0,0.055,0.016,0.108
		c0.002,0.007,0.003,0.009,0.005,0.016c0.002,0.008,0.004,0.013,0.006,0.021c0.023,0.077,0.038,0.125,0.044,0.147c0,0,0,0,0,0
		c0.007,0.025,0.007,0.025,0.007,0.025l0.208,0.372h0.167l0.292-0.164l0.125-0.125v0.208l0.146,0.229v0.438l0.271-0.229l0.125,0.042
		l0.146,0.188h0.146l-0.292,0.313l-0.042,0.313l-0.021,0.438l-0.188,0.188v0.479c0,0,0.008,0.029,0.016,0.07
		c0.008,0.039,0.015,0.088,0.016,0.153c0,0.05-0.002,0.104-0.013,0.164l0.156-0.055l0.054-0.019l0.089,0.059l0.224,0.149
		l0.271-0.104l0.167,0.333l-0.104,0.313l0.042,0.25v0.438v0.104l0.271,0.229l0.188,0.271l0.032,0.071l0.072,0.158l-0.01,0.014
		L21.5,33.15l0.093,0.074l0.03,0.012l0.142,0.058l0.287,0.117h0.375l0.396,0.25h0.417l0.307-0.083l0.107-0.071l0.14-0.093
		l0.036-0.024h0.097h0.167h0.167h0.167l0.333-0.292c0,0,0.208-0.146,0.27-0.188s0-0.313,0-0.313l0.293-0.833v-0.354l0.25-0.083
		l0.25,0.083l0.229-0.083c0,0-0.188-0.313-0.291-0.417l0.125-0.208l-0.209-0.271l-0.396,0.042l-0.207,0.229l-0.5-0.458l-0.146-0.25
		l-0.125,0.25h-0.375l-0.098-0.479l0.243-0.219l0.104-0.323l-0.104-0.146l0.042-0.354l-0.042-0.313l0.104-0.344l-0.084-0.406
		l0.104-0.25l0.104-0.229l-0.209-0.104l-0.264-0.313v-0.104l-0.283-0.167l-0.167-0.542l0.45-0.188v-0.125l0.118-0.271l0.333,0.333
		l0.209,0.167l0.104-0.167v-0.25l-0.646-0.333l0.354-0.208l0.541-0.438h0.125l0.313-0.042l0.355,0.167c0,0,0.074,0.028,0.148,0.028
		c0.037,0,0.073-0.007,0.102-0.028c0.082-0.063,0.104-0.083,0.104-0.083l-0.354-0.271v-0.333l0.438-0.521h0.354v-0.208h0.25h0.896
		v-0.229v-0.521l0.457,0.229l0.355,0.167l0.563,0.354h0.854l0.146-0.229l-0.146-0.375l0.104-0.313v-0.167v-0.188l0.23-0.313
		l0.457-0.479l0.293-0.208c0,0,0,0,0.354-0.25c0.213-0.15,0.171-0.18,0.103-0.18c-0.046,0-0.103,0.013-0.103,0.013
		s0.063-0.083,0.119-0.25C31.376,20.193,31.433,20.167,31.499,20.152z"/>
	<path fill="#AFDCDC" d="M15.715,12.973l-0.077-0.176l-0.085-0.085c-0.029-0.028-0.052-0.063-0.066-0.101l-0.053-0.132
		c-0.029-0.05-0.081-0.147-0.102-0.258h-0.207c-0.024,0-0.048-0.004-0.072-0.011l-0.028,0.033l-0.112,0.109l-0.092,0.123
		l-0.01,0.084l-0.047,0.234c-0.024,0.124-0.124,0.219-0.248,0.238c-0.015,0.002-0.031,0.003-0.046,0.003
		c-0.108,0-0.209-0.058-0.263-0.155l-0.076-0.138l-0.069,0.027l-0.073,0.049v0.011c0,0.018-0.001,0.036-0.004,0.054l-0.042,0.213
		l-0.047,0.141c-0.024,0.072-0.074,0.132-0.14,0.168l-0.031,0.017l-0.317,0.174c-0.045,0.024-0.095,0.037-0.145,0.037
		c-0.065,0-0.131-0.021-0.185-0.063l-0.115-0.091l-0.067,0.099c0.07,0.017,0.135,0.049,0.178,0.109l0.039,0.057l0.085,0.125
		c0.067,0.066,0.134,0.193,0.084,0.418l0.147,0.01c0.022,0.001,0.045,0.006,0.067,0.013c0.28,0.086,0.431,0.275,0.396,0.479
		c-0.001,0.024,0.004,0.084,0.012,0.16h0.081h0.102l0.153-0.14l0.125-0.109c0.055-0.048,0.125-0.074,0.198-0.074h0.299
		c0.045-0.009,0.125-0.021,0.196-0.021c0.257,0,0.334,0.173,0.352,0.226c0.003,0.01,0.009,0.027,0.014,0.054l0.397-0.212l0.247-0.19
		l-0.045-0.022c-0.077-0.039-0.134-0.108-0.156-0.191c-0.022-0.083-0.007-0.172,0.041-0.244L16,13.881l-0.188-0.02
		c-0.153-0.016-0.269-0.145-0.269-0.298v-0.172C15.544,13.327,15.544,13.274,15.715,12.973z"/>
	<path fill="#4650A1" d="M14.257,44.432v-0.438l-0.523-0.291l-0.245,0.291h-0.146l-0.479,0.167l-0.375-0.167l-0.25-0.146
		c0,0-0.167-0.146-0.25-0.146s-0.341,0.416-0.341,0.416s-0.263,0.167-0.492,0.313c-0.125,0.079-0.126,0.097-0.102,0.097
		c0.021,0,0.06-0.013,0.06-0.013l-0.063,0.313v0.281l-0.099,0.385l1.037,0.256v0.286l0.354,0.25l0.229,0.104h0.271h0.117
		l0.487-0.219c0,0,0.167-0.115,0.286-0.136c0.04-0.007,0.084-0.009,0.125-0.009c0.082,0,0.151,0.009,0.151,0.009s0.146,0,0.247,0
		s0.165-0.104,0.165-0.104l0.151-0.182l0.188-0.297V45.11l0.208-0.344l-0.208-0.146L14.257,44.432z"/>
	<path fill="#8A66A4" d="M14.286,66.663c0-0.051-0.024-0.098-0.066-0.125l-0.44-0.289l-0.271-0.07L13.3,65.985
		c-0.079-0.1-0.279-0.332-0.506-0.393c-0.191,0-0.625,0.223-0.684,0.273h-1.156c-0.152,0-0.265,0.072-0.327,0.125l-0.737,0.012
		l-0.524,0.238H9.156c-0.035,0-0.069,0.012-0.096,0.035l-0.271,0.23l-0.097,0.16l-0.198,0.066l-0.126-0.211
		C8.341,66.477,8.292,66.45,8.24,66.45c-0.012,0-0.024,0.002-0.036,0.004l-0.462,0.125l-0.557,0.365L6.482,67.54
		c-0.285,0.316-0.435,0.535-0.441,0.635c-0.021,0.057-0.185,0.242-0.272,0.342c-0.174,0.195-0.22,0.25-0.223,0.326
		c-0.003,0.064,0,0.529,0.007,0.576l0.169,0.52c0.016,0.047,0.055,0.084,0.105,0.098l0.242,0.031l0.12,0.152l0.417,0.479
		c0.029,0.033,0.07,0.053,0.113,0.053c0.009,0,0.019-0.002,0.028-0.004c0.133-0.025,0.358-0.082,0.412-0.176
		c0.019,0.008,0.04,0.014,0.061,0.014c0.018,0,0.036-0.004,0.054-0.012l1.018-0.389l0.699,0.15l1.725-0.004
		c0,0,0.349-0.063,0.603-0.127c0.289-0.072,0.379-0.18,0.496-0.32c0.025-0.029,0.043-0.053,0.057-0.07
		c0.167-0.049,0.726-0.215,0.832-0.232c0.117-0.02,0.321-0.189,0.632-0.543l0.067-0.146c0.019-0.039,0.136-0.168,0.222-0.264
		c0.268-0.297,0.46-0.52,0.487-0.691c0.013-0.086,0.039-0.129,0.071-0.182c0.04-0.066,0.088-0.148,0.103-0.287
		c0.021-0.215,0.001-0.596,0-0.596V66.663z"/>
	<g>
		<path fill="#4564AE" d="M41.117,38.641l-0.063-0.171l-0.056-0.15l-0.015-0.038l0.053-0.107l-0.662-0.158
			c0,0-0.135-0.042-0.238-0.042s-0.438,0.333-0.438,0.333l-0.396-0.063l-0.25-0.229l-0.104-0.125l-0.084-0.25l-0.291-0.125
			l-0.313-0.104l-0.771,0.229l-0.479,0.313v0.166l-0.188,0.313v0.084h-0.188l-0.158,0.023l-0.113,0.018l-0.041,0.053l-0.078,0.105
			l0.075,0.15l0.065,0.129v0.034v0.144l-0.271,0.177v0.479l0.135,0.125l0.615,0.104l0.479,0.229v0.375l0.293,0.292h0.188
			c0,0,0.104,0.207,0.166,0.229c0.049,0.017,0.244,0.058,0.33,0.075l0.064-0.066c0.021-0.022,0.055-0.02,0.081-0.034
			C38.509,41.133,38.55,41.1,38.6,41.1c0.052,0,0.103,0.013,0.149,0.04l0,0l0.057,0.032c0.093,0.053,0.15,0.152,0.15,0.26v0.1
			c0.037-0.015,0.076-0.022,0.117-0.022c0.031,0,0.063,0.005,0.094,0.014c0.016-0.002,0.033-0.003,0.045-0.003
			c0.119,0,0.275,0.056,0.339,0.317c0.02,0.063,0.15,0.268,0.283,0.444l0.212-0.188v-0.281V41.75v-0.203v-0.359l0.203-0.203
			l-0.234-0.391l0.234-0.078l0.094-0.219l-0.094-0.328l0.016-0.453l0.344,0.891l0.234-0.109L40.968,40v-0.5
			c0,0,0.125-0.172,0.141-0.281s0-0.313,0-0.313L41.117,38.641z"/>
		<path fill="#2E3692" d="M26.187,48.621c0,0-0.297-0.292-0.375-0.292s-0.219,0.109-0.219,0.109l-0.156,0.346
			c0,0,0.078,0.232,0.078,0.301s-0.078,0.213-0.078,0.213l-0.141,0.156l-0.328-0.089l-0.234-0.356c0,0-0.125-0.242-0.203-0.388
			l0.203-0.573v-0.266H24.5l-0.359,0.094v0.438l-0.188,0.125l-0.123,0.183c0,0-0.174,0.38-0.158,0.464s0,0.166,0,0.166l0.281,0.5
			v0.145v0.34l0.031,0.156l0.313,0.234l0.266-0.078l-0.156-0.25c0,0,0.047-0.109,0.063-0.211s0.453-0.102,0.453-0.102
			s0.031,0.297,0.031,0.344s0.281,0.406,0.242,0.453c-0.014,0.016,0.014,0.021,0.057,0.021c0.086,0,0.232-0.021,0.232-0.021
			s0.359-0.109,0.469-0.234s0.328-0.313,0.328-0.313s0.078-0.469,0.078-0.609s0.359-0.234,0.359-0.261s-0.203-0.317-0.313-0.458
			S26.187,48.621,26.187,48.621z"/>
		<path fill="#2E3692" d="M33.5,48.11c-0.031-0.094-0.141-0.422-0.141-0.469s-0.141-0.367-0.141-0.367s0-0.039,0-0.18
			s0.016-0.594,0.016-0.594l-0.484-0.328l-0.375,0.438l-0.188,0.594c0,0-0.188,0.109-0.203,0.156s-0.094,0.031-0.109,0.203
			s-0.141,0.313-0.156,0.406s-0.125,0.234-0.125,0.234l-0.391-0.125l-0.078,0.125h-0.188c0,0-0.172,0.641-0.133,0.766
			s0.242,0.322,0.242,0.322l0.609-0.135l0.125-0.072l0.063,0.207v0.261v0.152v0.153c0.012,0.009,0.023,0.016,0.047,0.037
			c0.042,0.035,0.053,0.045,0.072,0.063c0.05,0.042,0.068,0.059,0.068,0.059v0.095v0.062c0,0,0.047,0.156,0,0.25
			s0.094,0.38,0.094,0.38l0.188-0.177c0,0-0.047-0.188,0-0.234S32.484,50,32.484,50l0.281-0.297l0.297-0.339l0.438,0.183v-0.641
			l0.203-0.286l-0.156-0.417C33.546,48.204,33.531,48.204,33.5,48.11z"/>
		<path fill="#6860A9" d="M39.212,41.82c-0.014,0-0.031,0.007-0.057,0.007c-0.021,0-0.047-0.005-0.082-0.02
			c0,0-0.168,0.104-0.271,0.104c-0.097,0-0.024-0.007-0.123-0.152c-0.01-0.013-0.012-0.021-0.023-0.035
			c-0.041-0.054-0.057-0.084-0.061-0.104c-0.005-0.021,0.004-0.03,0.02-0.03c0.004,0,0.004,0.001,0.008,0.002
			c0.016,0.003,0.033,0.008,0.033,0.008v-0.042v-0.125L38.6,41.4l-0.142,0.146l-0.031,0.033l-0.083,0.214l-0.022,0.057v0.104h-0.104
			h-0.125c0,0-0.25,0.063-0.313,0.188l-0.313,0.5v0.104l-0.313,0.084l-0.332,0.188c0,0-0.25,0.229-0.334,0.271
			s-0.166,0.25-0.166,0.25l-0.209,0.208L35.99,43.87h-0.375l-0.354,0.167l-0.438,0.229c0,0,0,0,0.102,0.125s0,0.271,0,0.271H34.74
			h-0.209l-0.15,0.125l-0.078,0.323l0.322,0.197v0.35c0.026,0.046,0.037,0.064,0.047,0.08h0.076h0.15h0.008
			c0.029,0,0.051,0.021,0.078,0.029h0.094l0.141-0.047l0.641-0.563v1.047l0.281,0.031l0.281-0.297l0.141-0.219l0.375-0.625
			l0.141-0.078l0.109,0.313l0.297,0.109l0.141-0.078V45l0.188-0.141l0.234-0.172l0.25-0.25l0.609-0.453l0.125-0.375v-0.281v-0.141
			c0,0,0.025-0.47,0.33-0.538c0.022-0.005,0.035-0.024,0.061-0.024c0.006,0,0.011,0,0.016,0l0.059-0.051l0.111-0.096
			c0,0-0.305-0.4-0.346-0.567C39.242,41.835,39.232,41.82,39.212,41.82z"/>
		<path fill="#2E3692" d="M34.906,46.037h-0.327h-0.173l-0.135,0.25l-0.135,0.25l0.27,0.229c0,0,0.23-0.125,0.334-0.209
			s0.125-0.166,0.166-0.166c0.037,0,0.012-0.255,0.004-0.325C34.908,46.055,34.906,46.037,34.906,46.037z"/>
		<path fill="#B3B3D9" d="M30.082,38.579v0.219c0,0.088-0.047,0.164-0.113,0.221l0.566,0.407l0.289,0.113l0.496-0.027
			c-0.025-0.037-0.059-0.07-0.064-0.118l-0.058-0.381l-0.312-0.758l-0.125-0.5c-0.035-0.14,0.034-0.285,0.166-0.346l0.535-0.242
			l0.266-0.083c0.029-0.009,0.061-0.014,0.09-0.014c0.024,0,0.049,0.003,0.072,0.009l0.254,0.063c0.08,0.02,0.149,0.07,0.189,0.143
			l0.069,0.121l0.097-0.121l0.049-0.279c0.003-0.016,0.008-0.033,0.014-0.049l0.099-0.275c0,0,0.064-0.215,0.085-0.279
			c0.03-0.09,0.09-0.162,0.142-0.213l0.074-0.174c0.003-0.096,0.011-0.207,0.034-0.28c0.033-0.099,0.104-0.174,0.248-0.322
			c0.021-0.023,0.045-0.046,0.066-0.069l-0.221-0.219c-0.056-0.056-0.088-0.133-0.088-0.212v-0.486
			c-0.119-0.17-0.244-0.37-0.309-0.547l-0.476,0.192c-0.003,0.001-0.204,0.112-0.361,0.253c-0.136,0.121-0.276,0.185-0.417,0.191
			l-0.025,0.116v0.177c0,0.083-0.034,0.164-0.096,0.22l-0.338,0.311l-0.162,0.124c-0.053,0.04-0.117,0.061-0.182,0.061
			c-0.026,0-0.053-0.003-0.078-0.01c-0.09-0.024-0.163-0.088-0.199-0.173l-0.084-0.2c-0.01,0.003-0.021,0.005-0.031,0.006
			l-0.141,0.229l-0.063,0.107l0.048,0.031l0.234,0.016c0.094,0.006,0.18,0.057,0.232,0.136l0.229,0.354
			c0.05,0.076,0.063,0.171,0.033,0.257c-0.028,0.086-0.094,0.155-0.18,0.188l-0.104,0.039l-0.476,0.492l-0.067,0.084
			c0,0.001,0,0.002,0,0.002c0.002,0.023,0.004,0.051,0.006,0.086c0.029,0.021,0.057,0.047,0.077,0.078l0.125,0.188
			c0.032,0.05,0.05,0.107,0.05,0.167v0.167c0,0.137-0.094,0.258-0.227,0.291l-0.168,0.041c-0.018,0.005-0.037,0.008-0.056,0.009
			l-0.075,0.004l0.265,0.249C30.046,38.417,30.082,38.496,30.082,38.579z"/>
		<path fill="#2E3692" d="M34.326,45.475l-0.18-0.109c-0.111-0.067-0.166-0.2-0.136-0.327l0.079-0.323
			c0.016-0.063,0.05-0.118,0.1-0.159l0.148-0.125c0.055-0.045,0.123-0.069,0.193-0.069h0.008c-0.017-0.05-0.02-0.104-0.01-0.156
			c0.019-0.088,0.075-0.163,0.155-0.205l0.448-0.235l0.354-0.167c0.041-0.019,0.084-0.028,0.129-0.028h0.25l0.038-0.038l0.167-0.166
			c0.059-0.132,0.151-0.28,0.279-0.344c0.036-0.022,0.164-0.128,0.271-0.228c0.018-0.016,0.035-0.028,0.056-0.04l0.333-0.188
			c0.021-0.012,0.045-0.021,0.069-0.028l0.122-0.032c0.004-0.009,0.009-0.017,0.014-0.024l0.299-0.475
			c0.111-0.225,0.393-0.315,0.508-0.345c0.018-0.005,0.037-0.008,0.055-0.009l0.051-0.132c-0.096-0.021-0.199-0.044-0.234-0.056
			c-0.043-0.015-0.129-0.045-0.242-0.213h-0.014c-0.08,0-0.156-0.031-0.213-0.088l-0.291-0.292
			c-0.057-0.056-0.088-0.133-0.088-0.212v-0.186l-0.271-0.13l-0.572-0.097c-0.059-0.01-0.111-0.036-0.154-0.075l-0.136-0.126
			c-0.062-0.057-0.097-0.137-0.097-0.22v-0.479c0-0.087,0.043-0.163,0.107-0.22l-0.547-0.273l-0.273,0.074
			c-0.066,0.063-0.18,0.164-0.293,0.244c-0.025,0.059-0.068,0.108-0.125,0.142l-0.262,0.153l-0.066,0.182
			c-0.045,0.12-0.158,0.196-0.281,0.196c-0.025,0-0.05-0.003-0.074-0.01l-1.067-0.271c-0.183,0.003-0.468,0.022-0.573,0.063
			c-0.035,0.014-0.071,0.02-0.107,0.02H31.92l-0.308,0.137c-0.017,0.008-0.035,0.012-0.053,0.014l-0.753,0.041
			c-0.003,0-0.005,0-0.009,0c-0.02,0-0.038-0.004-0.057-0.012l-0.352-0.143l-0.697-0.5l-0.02,0.01
			c-0.045,0.024-0.094,0.036-0.143,0.036c-0.081,0-0.162-0.033-0.22-0.097l-0.104-0.113l-0.158-0.113l-0.193-0.135h-0.281h-0.246
			l-0.042,0.035c-0.054,0.045-0.122,0.068-0.192,0.068h-0.188h-0.25c-0.046,0-0.092-0.01-0.134-0.031
			c-0.023-0.012-0.235-0.121-0.397-0.338c-0.139-0.185-0.083-0.346-0.053-0.406c0.036-0.072,0.109-0.156,0.252-0.196l0.033-0.104
			l0.002-0.278c-0.01-0.055-0.051-0.184-0.08-0.274l-0.414-0.276c-0.043-0.028-0.078-0.068-0.102-0.115l-0.072-0.145l-0.455-0.342
			l-0.222-0.013l-0.604,0.137c-0.021,0.005-0.044,0.007-0.066,0.007c-0.096,0-0.188-0.045-0.244-0.127
			c-0.001,0-0.143-0.2-0.253-0.348c-0.014,0.002-0.029,0.003-0.044,0.003c-0.059,0-0.138-0.024-0.187-0.057
			c-0.094-0.063-0.194-0.191-0.235-0.25l-0.135-0.169l-0.157,0.262c-0.023,0.038-0.055,0.071-0.092,0.095l-0.283,0.188
			c-0.02,0.013-0.041,0.024-0.063,0.032l-0.286,0.104c-0.033,0.012-0.067,0.018-0.103,0.018h-0.43l-0.076,0.23
			c-0.001,0.117-0.054,0.277-0.243,0.471c-0.103,0.105-0.202,0.196-0.277,0.263c0.002,0.079-0.01,0.173-0.052,0.271
			c-0.02,0.047-0.042,0.189-0.056,0.274c-0.022,0.139-0.037,0.229-0.066,0.303c-0.042,0.104-0.135,0.238-0.192,0.315l-0.078,0.28
			v0.313c0,0.038-0.007,0.076-0.021,0.111l-0.125,0.313c-0.007,0.018-0.016,0.034-0.025,0.05l-0.12,0.188v0.02l0.323,0.373
			c0.047,0.055,0.073,0.124,0.073,0.196v0.043l0.175,0.642l0.051,0.177c0.021,0.048,0.116,0.298-0.019,0.523
			c-0.046,0.075-0.078,0.152-0.078,0.152l-0.146,0.417c-0.009,0.026-0.022,0.052-0.039,0.075c-0.016,0.022-0.045,0.073-0.048,0.12
			v0.059c0,0.053-0.004,0.198-0.309,0.793l0.179,0.396c0.018,0.038,0.026,0.08,0.026,0.123v0.104v0.375v0.231l0.149,0.254
			l0.148,0.155l0.228,0.114c0.113,0.028,0.275,0.116,0.457,0.357c0.179,0.238,0.279,0.359,0.282,0.363
			c0.029,0.034,0.05,0.075,0.061,0.119c0.013,0.053,0.042,0.137,0.036,0.137c0.057,0.05,0.387,0.262,0.659,0.431
			c0.138,0.085,0.183,0.264,0.103,0.404l-0.182,0.314l-0.171,0.242l-0.029,0.037l-0.095,0.12l-0.095,0.122
			c0.042,0.021,0.085,0.032,0.127,0.056l0.1-0.07h0.001c0.003,0.001,0.008,0.001,0.011,0.002c0.055,0.008,0.121,0.015,0.177,0.02
			c0.064,0.005,0.114,0.008,0.114,0.008l0.484-0.125c0,0,0.063-0.016,0.125-0.063s0.375-0.172,0.375-0.172l0.234-0.406l0.25,0.188
			c0.078,0.047,0.703,0.188,0.703,0.188v-0.172l-0.125-0.375h0.125l0.203,0.844c0,0,0.281,0.469,0.609,0.563l0.313,0.141
			l0.188-0.016l0.453,0.078l0.141-0.547l0.594,0.047l0.172,0.328c0,0,0.109-0.031,0.188-0.031s0.188-0.047,0.188-0.094
			s0-0.359,0-0.359l0.203-0.094l0.188,0.313v0.109l0.125,0.234l-0.266,0.016l-0.313,0.125l0.203,0.375l0.469-0.063h0.328
			l0.266-0.484l0.078-0.391v-0.406v-0.266l-0.172-0.172c0,0,0.203-0.114,0.289-0.114c0.01,0,0.018,0.002,0.023,0.005
			c0.063,0.031,0.188,0.094,0.188,0.094l0.219-0.234v-0.109l-0.141-0.25l-0.016-0.156L30.5,45.907l-0.141,0.266l-0.406,0.266
			l-0.438,0.25l0.031-0.422l0.609-0.25l0.172-0.297l0.188-0.094l0.297-0.094H31.5l0.203,0.391l0.125,0.109l0.344,0.016l0.094-0.328
			l-0.219-0.609l-0.297-0.516c0,0-0.047-0.156,0.031-0.266S32,44.11,32,44.11l-0.094,0.375l0.188,0.328l0.172,0.125l0.297,0.125
			l0.375,0.016l0.234,0.219v0.141l0.234,0.266l0.281-0.094l0.25-0.141c0,0,0.202,0.025,0.389,0.067V45.475z"/>
	</g>
	<g>
		<polygon fill="#4DBBB0" points="10.401,13.291 10.364,13.346 10.425,13.332 10.422,13.328 		"/>
		<path fill="#4DBBB0" d="M9.641,14.234L9.5,14.516v0.063c0,0-0.641-0.047-0.688-0.094c-0.016-0.016-0.04-0.021-0.065-0.021
			c-0.051,0-0.106,0.021-0.106,0.021l-0.344,0.484L8.422,15L8.5,15.246l0.047,0.083l0.516,0.203c0,0,0.297-0.063,0.375-0.109
			s0.219-0.156,0.266-0.176s0.266-0.371,0.375-0.464l0.219-0.258v-0.258c0,0-0.328-0.188-0.375-0.188S9.641,14.234,9.641,14.234z"/>
		<path fill="#4DBBB0" d="M1.188,15.391c-0.056-0.028-0.265-0.145-0.351-0.145c-0.01,0-0.018,0.001-0.024,0.004
			c-0.019,0.009-0.079,0.013-0.152,0.013c-0.168,0-0.41-0.017-0.41-0.017L0,15.391l0.234,0.703h0.125h0.344
			c0,0,0.109-0.172,0.141-0.25s0.203-0.102,0.203-0.102l0.25-0.352c0,0-0.021,0.014-0.053,0.014
			C1.228,15.404,1.208,15.401,1.188,15.391z"/>
		<path fill="#4DBBB0" d="M7.629,10.854l0.217-0.261c0.001-0.001,0-0.004,0.002-0.005l0.087-0.104H7.672l-0.281-0.141l-0.344-0.125
			H6.703l-0.156,0.563l0.219,0.078c-0.078,0.094-0.313,0.375-0.313,0.375l0.313,0.109l0.328-0.242l0.073-0.021l0.059-0.059
			c0.033-0.033,0.073-0.058,0.117-0.073L7.629,10.854z"/>
		<path fill="#4DBBB0" d="M7.778,11.734v-0.541v-0.073l-0.341,0.114l-0.109,0.109l0.002,0.003l0.185,0.263l-0.188,0.219l0.188,0.109
			l0.328,0.156c0.031,0.094,0,0.328,0,0.328L7.938,12.5h0.141l0.126-0.257L7.881,11.96C7.816,11.904,7.778,11.821,7.778,11.734z"/>
		<path fill="#4DBBB0" d="M8.891,17.297c0,0,0.016,0.266,0,0.328s0,0.391,0,0.391h0.234c0,0,0.109-0.078,0.172-0.141
			s0.25-0.219,0.25-0.219v-0.313l-0.25-0.047H8.891z"/>
		<polygon fill="#4DBBB0" points="5.688,17.438 5.516,17.375 5.313,17.766 5.414,18.016 5.641,18.25 6.063,18.25 6.063,18.125 
			5.875,17.656 		"/>
		<path fill="#4DBBB0" d="M10.639,13.59l0.119,0.144l-0.148,0.438c0,0,0.141,0.234,0.359,0.25s0.453,0-0.125,0.156
			s-0.203,0.25-0.203,0.25l0.188,0.313v0.281l0.188,0.188l-0.063,0.422l0.031,0.188c0,0,0.266-0.281,0.375-0.313
			c0.009-0.002,0.02-0.004,0.032-0.004c0.061,0,0.152,0.032,0.233,0.065c0.063,0.026,0.111,0.048,0.141,0.063
			c0.015,0.008,0.032,0.016,0.032,0.016l0.078,0.078c0.039-0.074,0.219-0.141,0.219-0.141l0.188-0.453l0.094-0.286l0.086-0.089
			v-0.25l-0.367-0.328v-0.25l0.172-0.172v-0.078l0.016-0.021l0.09-0.12l0.035-0.047v-0.156l0.082-0.109l0.094-0.125l0.012-0.016
			l0.063-0.093l-0.55-0.144L10.639,13.59z"/>
		<path fill="#4DBBB0" d="M10.296,12.297c-0.025-0.035-0.033-0.079-0.023-0.121l0.25-1.053l-0.101-0.029l-0.219-0.047L10,10.952
			l-0.281-0.187l-0.391-0.313l-0.141-0.125l-0.234-0.281c0,0-0.009-0.079-0.04-0.079c-0.01,0-0.023,0.009-0.039,0.032
			c-0.063,0.094-0.547,0.344-0.547,0.344v0.141l-0.174,0.207l-0.076,0.09v0.003v0.187v0.763l0.082,0.071l0.278,0.242l0.125,0.108
			l0.006,0.006l0.166,0.181l-0.031,0.25l-0.234,0.203l-0.125,0.063l0.031,0.25l0.188,0.063l0.266-0.016c0,0,0.242,0.016,0.514,0.016
			c0.326,0,0.694-0.023,0.736-0.125c0.078-0.188,0.078-0.188,0.078-0.188l0.079,0.139l0.27-0.408L10.296,12.297z"/>
	</g>
	<g>
		<path fill="#7FCCDE" d="M23.313,13.579l-0.094-0.063l-0.188-0.141h-0.188L22.5,13.266l-0.781-0.281l-0.328-0.25l-0.156-0.094
			L21.047,12.5l-0.469,0.234L20.438,12.5l0.172-0.297v-0.405l-0.188-0.267l-0.25,0.078l0.016-0.266l0.219-0.234l0.047-0.203
			l-0.156-0.125l0.031-0.328v-0.234l0.141-0.172l0.234-0.297l0.172-0.219l0.281-0.391l-0.094-0.313l-0.125-0.391h-0.141
			l-0.266-0.125l-0.094-0.141l-0.156-0.234h-0.203h-0.25l-0.234-0.266V7.5l-0.125-0.109V7.078l-0.156-0.547l-0.109-0.078
			l-0.094,0.063l-0.141,0.016l-0.141-0.109L18.5,6.5l-0.203,0.172V6.75l-0.234-0.125l-0.156-0.281L17.719,6.25l0.094-0.344V5.547
			l-0.156-0.125l-0.219,0.141c0,0-0.188,0.188-0.266,0.266s0,0.203,0,0.203h-0.25l-0.156-0.5l-0.156-0.344l-0.141-0.141V4.719
			l-0.328,0.094c0,0,0,0-0.047,0s-0.109-0.172-0.109-0.172l-0.253-0.415c-0.042,0.033-0.08,0.064-0.118,0.095
			c-0.055,0.045-0.091,0.078-0.114,0.102c-0.008,0.009-0.029,0.026-0.031,0.03c-0.016,0.047-0.344,0.531-0.344,0.531l-0.5,0.453
			l-0.469,0.875l-0.313,0.203h-0.281l-0.234,0.203l-0.109,0.469l-0.281,0.438l-0.063,0.344c0,0-0.078,0-0.172,0.047
			s-0.484,0.266-0.484,0.266l-0.094,0.016l-0.672,0.125c0,0-0.171,0.682,0,0.906c0,0-0.109,0.563,0,0.656h0.422l-0.406,0.25
			c0,0,0.203,0.297,0.016,0.563c0,0,0.001,0.016,0.001,0.026c0.014,0.026,0.039,0.045,0.044,0.076l0.013,0.073
			c0.039,0.056,0.1,0.106,0.223,0.106c0,0-0.064,0.102-0.112,0.237l0.019,0.051c0.022,0.061,0.024,0.127,0.006,0.189l-0.035,0.114
			v0.081c0,0.024-0.003,0.049-0.009,0.073l-0.037,0.146c0.123,0.096,0.278,0.23,0.478,0.418l0.24,0.108l0.125,0.078l0.25,0.156
			c0.034,0.021,0.063,0.049,0.086,0.082c0.053,0.076,0.109,0.139,0.183,0.204c0,0,0,0,0,0c0.032,0.029,0.04,0.07,0.057,0.108
			c0.004,0.009,0.011,0.017,0.014,0.027l0.123,0.096l0.109,0.085l0.286-0.157l0.062-0.034L13.656,13l0.031-0.172v-0.172l0.234-0.156
			l0.203-0.078l0.18,0.016l0.164,0.297l0.047-0.234l0.016-0.141l0.141-0.188l0.141-0.141l0.078-0.094c0,0,0.063-0.094,0.109-0.133
			c0.005-0.004,0.011-0.006,0.017-0.006c0.047,0,0.108,0.124,0.108,0.124h0.297h0.156c0,0,0.031,0.141,0.047,0.234
			s0.078,0.188,0.078,0.188l0.063,0.156l0.125,0.125L16,12.875L16.047,13c0,0-0.203,0.344-0.203,0.391s0,0.172,0,0.172l0.297,0.031
			l0.141-0.203h0.328v0.203v0.172l-0.203,0.188L16.281,14l-0.125,0.188l0.25,0.125v0.203l-0.078,0.141l-0.344,0.266l-0.469,0.25
			v0.074l-0.203,0.114l-0.188-0.234c0,0,0.016-0.156,0-0.203c-0.005-0.016-0.033-0.021-0.068-0.021
			c-0.069,0-0.167,0.021-0.167,0.021h-0.328l-0.125,0.109l-0.234,0.214h-0.219h-0.125h-0.219c0,0-0.063-0.402-0.047-0.496
			s-0.188-0.156-0.188-0.156l-0.219-0.016l-0.234,0.172c0,0,0,0-0.125-0.109s0.125-0.281,0.125-0.281s0,0,0.031-0.125
			s0-0.156,0-0.156l-0.156-0.219h-0.122v0.031c0,0.043-0.022,0.08-0.039,0.119c-0.009,0.02-0.007,0.044-0.021,0.062l-0.066,0.088
			l-0.015,0.02c-0.006,0.071-0.036,0.138-0.087,0.189l-0.079,0.08l0.099,0.088l0.164,0.146c0.064,0.057,0.1,0.138,0.1,0.224v0.071
			v0.179c0,0.078-0.03,0.152-0.083,0.208l-0.039,0.04l-0.08,0.242l-0.188,0.453c-0.032,0.077-0.095,0.138-0.173,0.167
			c-0.021,0.008-0.062,0.027-0.083,0.04c-0.047,0.062-0.116,0.104-0.194,0.116c-0.015,0.002-0.03,0.003-0.045,0.003
			c-0.048,0-0.087-0.032-0.129-0.054l-0.199,0.379l1,0.453l-1.219-0.078l-0.188,0.078l-0.188,0.172h-0.313l-0.188-0.203
			l-0.141-0.094l-0.047,0.172l-0.234,0.016l0.188,0.328l0.047,0.188l-0.078,0.141l-0.109,0.203l-0.031,0.125l0.203,0.156
			l0.156-0.234l0.234,0.047l0.219-0.031l0.063,0.219l0.156,0.125l0.047-0.078l0.078,0.266L11.094,19h0.266h0.094v0.234l0.141,0.125
			l0.266-0.125l0.125-0.297l0.141-0.109l0.188-0.047l0.203-0.094l0.188-0.094l-0.047,0.297l-0.125,0.172l0.219,0.031v0.094
			c0,0-0.462,0.027-0.393,0.401c0.004,0.021,0.01,0.044,0.018,0.067c0.085,0.266,0.026,0.318-0.033,0.318
			c-0.039,0-0.077-0.021-0.077-0.021l-0.094,0.391c0,0-0.11,0.232,0.242,0.232c0.046,0,0.101-0.004,0.164-0.013l0.109,0.344
			L12.813,21l0.375,0.297l0.031,0.078l0.219,0.25l0.219,0.17l0.062,0.048c0,0,0.017,0.027,0.04,0.065
			c0.023,0.04,0.052,0.091,0.077,0.142l0.134-0.16c0,0,0.25,0,0.542-0.042s0.313-0.083,0.375-0.125s0.604-0.146,0.604-0.146
			l0.438-0.354l0.125-0.104l0.75,0.271l0.25,0.396c0,0,0.195,0.041,0.522,0.172c0.015,0.006,0.025,0.009,0.041,0.016
			c0,0,0.028,0.038,0.065,0.088c0.027,0.037,0.058,0.079,0.093,0.127l0.055-0.049l0.03-0.083l0.048-0.136
			c0,0,0.014-0.004,0.034-0.011c0.06-0.02,0.181-0.063,0.216-0.098c0.047-0.047,0.219-0.172,0.219-0.172s0.25-0.156,0.406-0.234
			s0.078-0.094,0.078-0.094L19,21.141l0.016-0.125l0.109-0.234h0.219l0.125-0.188c0,0,0.313-0.281,0.406-0.344l0.531,0.109
			l0.281-0.094c0,0,0.109-0.109,0.25-0.328c0.047-0.073,0.08-0.097,0.103-0.097c0.046,0,0.053,0.097,0.053,0.097
			s0.063-0.234,0.094-0.281s0.109-0.141,0.109-0.141l0.078-0.078l0.031-0.172l0.047-0.094l0.063-0.109h0.125h0.375l0.047-0.094
			l0.125-0.172l0.109-0.266l0.053-0.087l0.09-0.147l0.029-0.047l0.044-0.132l0.034-0.103v-0.027v-0.051l0.024-0.103l0.042-0.178
			l0.199-0.188v-0.375l0.031-0.234v-0.281l-0.141-0.234l0.094-0.25l0.219-0.328l0.063-0.313l-0.031-0.531v-0.117l-0.219-0.32
			l0.297-0.328l0.255-0.078c0,0,0.167-0.266,0.167-0.344s0-0.078,0-0.078L23.313,13.579z"/>
		<path fill="#7FCCDE" d="M10.422,13.328l0.003,0.004l1.65-0.385c0.024-0.006,0.049-0.004,0.072,0.001l0.458,0.12
			c-0.01-0.012-0.021-0.022-0.031-0.035c-0.015-0.019-0.029-0.028-0.043-0.049l-0.25-0.156l-0.125-0.078l-0.25-0.109
			c0,0-0.065-0.061-0.154-0.142c-0.132-0.119-0.319-0.282-0.461-0.382c-0.072-0.05-0.133-0.085-0.166-0.085l0.171-0.094h0
			l0.009-0.035l0.038-0.153v-0.125l0.047-0.156l-0.046-0.128l-0.079-0.216l-0.005-0.031l-0.026-0.142h-0.031h-0.078
			c0,0-0.012-0.015-0.037-0.015c-0.037,0-0.103,0.034-0.197,0.203l-0.064,0.004l-0.246,1.035l0.228,0.322
			c0.036,0.05,0.037,0.118,0.002,0.169l-0.41,0.621L10.422,13.328z"/>
	</g>
	<g>
		<path fill="#8FA3D3" d="M41.984,32.531l-0.172,0.25l-0.188,0.313l-0.25,0.266c0,0-0.125,0.094-0.188,0.156
			s-0.141,0.156-0.141,0.156l-0.234,0.141l-0.281-0.031l-0.266-0.375l-0.188-0.359v-0.078c0,0,0.125-0.125,0.172-0.203
			s0.328-0.234,0.328-0.234s0.016-0.078,0.016-0.203s0-0.219,0-0.219l-0.25-0.328c0.016-0.219,0.016-0.438,0.016-0.438l-0.313-0.328
			c0,0-0.031-0.047,0-0.109s0.031-0.188,0.031-0.188l0,0c-0.006,0-0.034-0.012-0.063-0.234c-0.031-0.25-0.141-0.578-0.141-0.625
			s0.016-0.156,0.063-0.281s0.078-0.297,0.156-0.422s0.125-0.234,0.125-0.281s0.141-0.438,0.141-0.438s0.063-0.313,0.078-0.391
			s-0.063,0.047,0.016-0.219s0.141-0.453,0.141-0.453s0-0.172,0-0.219s0.016-0.625,0.016-0.625L40.343,26v-0.328L40.484,25
			l0.313-0.172l0.094-0.344l0.078-0.391v-0.328l-0.063-0.484l-0.469-0.688l-0.031-0.453c0,0-0.109-0.453-0.109-0.531
			s0-0.609,0-0.609v-0.406v-0.5l0.016-0.266l-0.52-0.78c0.012,0.016,0.029,0.038,0.039,0.038c0.011,0,0.008-0.039-0.006-0.104
			c-0.006-0.034-0.011-0.061-0.029-0.122c-0.002-0.008-0.005-0.016-0.008-0.024c-0.015-0.048-0.031-0.094-0.047-0.14l-0.195,0.055
			l-0.516,0.078l-0.438,0.297l-0.313,0.328v0.281v0.203l-0.203,0.109l-0.234-0.109l-0.609-0.359l-0.391-0.031h-0.078l-0.094,0.219
			l-0.563,0.047l-0.406-0.266c0,0-0.125,0-0.344-0.031h-0.328l-0.125,0.203l-0.234,0.063l-0.375,0.156h-0.078v-0.156l-0.578-0.094
			h-0.25l-0.078,0.172l-0.141,0.156v0.219l-0.094,0.125l-0.25-0.141h-0.453l-0.055-0.037c-0.025,0.038-0.057,0.073-0.098,0.096
			l-0.161,0.092l-0.069,0.039c-0.045,0.026-0.097,0.039-0.148,0.039c-0.016,0-0.031-0.001-0.047-0.003
			c-0.006-0.001-0.051-0.008-0.107-0.01c0.059,0.237-0.166,0.395-0.275,0.472l-0.354,0.249l-0.27,0.192l-0.413,0.429l-0.171,0.233
			v0.089v0.167c0,0.032-0.006,0.064-0.016,0.094l-0.069,0.21l0.106,0.274c0.034,0.089,0.024,0.188-0.026,0.269l-0.146,0.229
			c-0.055,0.087-0.15,0.139-0.254,0.139h-0.854c-0.057,0-0.112-0.016-0.16-0.046l-0.53-0.337l-0.361-0.169l-0.024-0.012v0.035v0.229
			c0,0.166-0.134,0.3-0.299,0.3h-0.86c-0.039,0.121-0.151,0.208-0.286,0.208h-0.215l-0.277,0.331v0.076l0.237,0.181
			c0.067,0.052,0.106,0.133,0.113,0.218c0.007,0.085-0.026,0.173-0.086,0.234c0,0-0.026,0.028-0.134,0.109
			c-0.053,0.04-0.146,0.088-0.281,0.088c-0.119,0-0.225-0.036-0.276-0.056l-0.276-0.129l-0.264,0.033h-0.02l-0.398,0.319
			l0.181,0.093c0.1,0.051,0.163,0.154,0.163,0.267v0.25c0,0.056-0.016,0.11-0.045,0.158l-0.104,0.167
			c-0.045,0.073-0.119,0.123-0.204,0.137c-0.017,0.003-0.034,0.004-0.051,0.004c-0.067,0-0.134-0.022-0.188-0.065l-0.22-0.178
			c-0.032,0.051-0.08,0.092-0.138,0.116l-0.198,0.083l0.052,0.17l0.183,0.107c0.09,0.053,0.146,0.149,0.148,0.253l0.153,0.182
			l0.154,0.077c0.145,0.072,0.206,0.246,0.139,0.393l-0.101,0.22l-0.069,0.165l0.065,0.315c0.01,0.049,0.008,0.1-0.007,0.148
			l-0.085,0.281l0.033,0.248c0.003,0.025,0.003,0.05,0,0.075l-0.028,0.239l0.037,0.051c0.055,0.078,0.071,0.177,0.042,0.267
			l-0.104,0.323c-0.009,0.027-0.021,0.052-0.037,0.075c0.03-0.011,0.063-0.018,0.096-0.019c0.003,0,0.006,0,0.009,0
			c0.106,0,0.206,0.057,0.259,0.149l0.123,0.21l0.245,0.224l0.005-0.006c0.05-0.055,0.118-0.089,0.19-0.097l0.396-0.042
			c0.011-0.001,0.021-0.001,0.031-0.001c0.094,0,0.182,0.042,0.238,0.117l0.208,0.271c0.075,0.098,0.083,0.231,0.02,0.337
			l-0.019,0.031c0.082,0.114,0.156,0.236,0.186,0.286c0.046,0.077,0.055,0.17,0.025,0.254s-0.096,0.151-0.18,0.182l-0.23,0.083
			c-0.033,0.012-0.067,0.018-0.102,0.018c-0.033,0-0.064-0.005-0.096-0.015l-0.105-0.035v0.104c0,0.034-0.005,0.067-0.016,0.099
			l-0.266,0.756c0.048,0.271,0.002,0.444-0.145,0.541c-0.057,0.038-0.238,0.165-0.24,0.165l-0.331,0.29
			c-0.055,0.048-0.125,0.074-0.198,0.074h-0.021l0.227,0.464c0.02,0.041,0.03,0.086,0.03,0.132v0.229
			c0,0.046-0.011,0.092-0.031,0.134l-0.094,0.187v0.13v0c0.067,0.078,0.089,0.184,0.06,0.282c-0.002,0.007-0.008,0.011-0.011,0.018
			c-0.019,0.049-0.05,0.09-0.09,0.123l0.117,0.146c0,0,0.104,0.146,0.167,0.188c0.007,0.005,0.014,0.007,0.021,0.007
			c0.035,0,0.066-0.054,0.111-0.054c0.021,0,0.046,0.012,0.076,0.047c0.104,0.125,0.354,0.479,0.354,0.479l0.646-0.146l0.354,0.021
			l0.584,0.438l0.104,0.208l0.5,0.333c0,0,0.125,0.375,0.125,0.438s0,0.354,0,0.354l-0.104,0.333c0,0-0.013-0.001-0.031-0.001
			c-0.076,0-0.257,0.013-0.156,0.147c0.125,0.166,0.291,0.25,0.291,0.25h0.25h0.188l0.125-0.104h0.355h0.375l0.27,0.188l0.188,0.136
			l0.125,0.135l0.25-0.135v-0.219l-0.354-0.334l-0.041-0.416l0.395-0.021l0.168-0.041v-0.167l-0.125-0.188
			c0,0-0.022,0.015-0.049,0.015c-0.035,0-0.076-0.027-0.076-0.16c0-0.229-0.043-0.25,0.041-0.354s0.084-0.104,0.084-0.104
			l0.541-0.563l0.166-0.063l-0.229-0.354l-0.313-0.021l-0.354-0.229l0.207-0.355l0.23-0.374h0.125l0.332-0.25v0.375l0.105,0.249
			l0.162-0.124l0.316-0.292v-0.208l0.084-0.396h0.16c0,0,0.021,0.012,0.059,0.012c0.051,0,0.132-0.021,0.238-0.116
			c0.188-0.167,0.418-0.292,0.418-0.292l0.563-0.229c0,0,0.086-0.029,0.168-0.029c0.074,0,0.145,0.023,0.145,0.112
			c0,0.188,0.354,0.667,0.354,0.667v0.583l0.313,0.312c0,0,0.104,0.105,0,0.23s-0.313,0.313-0.334,0.375
			c-0.02,0.063-0.02,0.25-0.02,0.25l-0.125,0.291c0,0-0.084,0.063-0.105,0.125c-0.02,0.063-0.082,0.271-0.082,0.271l-0.105,0.291
			l-0.063,0.354l-0.25,0.313l-0.279,0.021l-0.178-0.313l-0.256-0.063l-0.266,0.084l-0.5,0.229l0.125,0.5l0.313,0.75l0.063,0.417
			h0.699c0.217-0.083,0.717-0.083,0.717-0.083l1.105,0.281l0.104-0.281l0.354-0.209c0,0,0-0.063,0.125-0.146s0.293-0.25,0.293-0.25
			l0.457-0.125l0.566,0.282c-0.021-0.057-0.023-0.113-0.01-0.172c0.01-0.039,0.018-0.078,0.043-0.111l0.019-0.025l0.101-0.133
			c0.047-0.063,0.117-0.105,0.194-0.117l0.281-0.039l0.11-0.185v-0.083c0-0.102,0.051-0.196,0.137-0.252l0.479-0.313
			c0.023-0.016,0.051-0.027,0.078-0.036l0.771-0.229c0.027-0.008,0.057-0.012,0.086-0.012c0.031,0,0.063,0.005,0.094,0.016
			l0.336,0.112l0.291,0.125c0.079,0.034,0.14,0.1,0.166,0.181l0.068,0.201l0.038,0.048l0.184,0.168l0.159,0.025
			c0.338-0.313,0.467-0.313,0.539-0.313c0.141,0,0.297,0.045,0.309,0.05l0.662,0.159c0.004,0.001,0.006,0.004,0.01,0.004v-0.246
			l0.133-0.109l0.078-0.641v-0.625l0.25-0.672l0.109-0.371v-0.52l-0.078-0.25c0,0,0.371-0.302,0.443-0.584
			c0.004-0.019,0.008-0.038,0.01-0.056C42.093,33.516,42.734,33.016,41.984,32.531z"/>
		<path fill="#8FA3D3" d="M46.312,11.313h-0.141h-0.219l-0.328,0.219l-0.609,0.156v0.188l0.078,0.075l0.156,0.237l0.25,0.141
			c0,0,0.266,0.203,0.328,0.25c0.01,0.007,0.02,0.01,0.031,0.01c0.064,0,0.156-0.104,0.156-0.104l0.078-0.109l0.313-0.266v-0.078
			c0,0-0.031-0.313-0.094-0.344S46.312,11.313,46.312,11.313z"/>
		<path fill="#8FA3D3" d="M46.406,15.234v0.125v0.188l0.109,0.094h0.094c0,0-0.094-0.047,0-0.094s0.094-0.047,0.094-0.047
			l-0.148-0.266H46.406z"/>
	</g>
</g>
</svg>
